<svg width="89" height="92" viewBox="0 0 89 92" fill="none" xmlns="http://www.w3.org/2000/svg">
<path d="M0.262146 45.9102C0.262146 52.8155 6.78522 59.2617 17.0689 62.8953C15.0153 73.582 16.7011 82.1959 22.331 85.5521C28.1178 89.0021 36.7389 86.614 44.9217 79.2199C52.898 86.3154 60.9591 89.1077 66.5842 85.7418C72.3657 82.2821 74.1238 73.0843 72.0135 62.0637C82.7248 58.4031 88.7163 52.9065 88.7163 45.9102C88.7163 39.165 82.1814 33.3299 72.0361 29.7196C74.3081 18.2437 72.3831 9.83897 66.5199 6.34405C60.8673 2.97454 52.7123 5.91136 44.6189 13.1923C36.1987 5.4643 28.1244 3.105 22.2674 6.60962C16.6201 9.98883 15.0087 18.7594 17.0689 29.6438C7.13218 33.2249 0.262146 39.1924 0.262146 45.9102Z" fill="white"/>
<path d="M69.8876 33.3047C69.0515 33.0082 68.2083 32.7336 67.3587 32.481C67.4996 31.8893 67.6299 31.2949 67.7495 30.6982C69.6637 21.0928 68.4121 13.3547 64.1381 10.8075C60.0402 8.36445 53.3381 10.9117 46.5692 17.0006C45.9023 17.602 45.2501 18.2206 44.6133 18.856C44.1869 18.4335 43.753 18.0192 43.3117 17.6133C36.2178 11.1022 29.1072 8.3587 24.8376 10.9135C20.7436 13.3634 19.531 20.6382 21.2543 29.7412C21.4258 30.6426 21.6194 31.5394 21.8349 32.4307C20.8288 32.7261 19.8571 33.0409 18.9274 33.3759C10.6108 36.3731 5.29932 41.0708 5.29932 45.9432C5.29932 50.9759 11.0009 56.0237 19.6638 59.0841C20.3662 59.3311 21.0745 59.56 21.788 59.7705C21.5562 60.7308 21.3504 61.6975 21.1709 62.6696C19.5278 71.6145 20.811 78.7168 24.8943 81.1516C29.1117 83.6654 36.19 81.0815 43.0826 74.8535C43.6274 74.3612 44.1742 73.839 44.7218 73.2917C45.4115 73.9795 46.1196 74.6474 46.8453 75.2945C53.5217 81.2331 60.1153 83.6312 64.1951 81.19C68.4087 78.6686 69.7777 71.0387 67.9998 61.7557C67.8642 61.0467 67.7061 60.3225 67.5288 59.5851C68.0259 59.4334 68.5137 59.2768 68.9896 59.1136C77.9953 56.0294 83.8543 51.0431 83.8543 45.9432C83.8543 41.0532 78.3718 36.3238 69.8876 33.3047Z" fill="#53C1DE"/>
<path d="M67.9341 55.821C67.5048 55.968 67.0639 56.1099 66.6148 56.2476C65.6205 52.9942 64.2785 49.5345 62.6369 45.9605C64.2038 42.4709 65.4936 39.0558 66.4601 35.8232C67.2635 36.064 68.0436 36.3174 68.7953 36.5851C76.0648 39.1715 80.4988 42.9963 80.4988 45.9432C80.4988 49.0824 75.7095 53.1577 67.9341 55.821ZM64.7079 62.4295C65.4939 66.5343 65.6062 70.2456 65.0854 73.1468C64.6175 75.7537 63.6767 77.4917 62.5135 78.1878C60.0378 79.6691 54.7434 77.7436 49.0341 72.6649C48.3795 72.0827 47.72 71.461 47.0588 70.8033C49.2723 68.3007 51.4844 65.3912 53.6434 62.1604C57.4412 61.8121 61.029 61.2425 64.2827 60.4652C64.4426 61.1336 64.5852 61.7888 64.7079 62.4295ZM32.0803 77.9319C29.6617 78.8149 27.7353 78.84 26.571 78.1461C24.0929 76.6691 23.0632 70.9658 24.4681 63.3165C24.6351 62.4125 24.8264 61.5135 25.0417 60.6205C28.2592 61.3561 31.821 61.8855 35.6278 62.2046C37.801 65.366 40.0771 68.2719 42.371 70.8166C41.8835 71.3041 41.3844 71.7791 40.8743 72.2412C37.8264 74.9955 34.7722 76.949 32.0807 77.9319H32.0803ZM20.7492 55.8016C16.9187 54.4482 13.7554 52.6894 11.587 50.7703C9.63877 49.0453 8.65491 47.3329 8.65491 45.9432C8.65491 42.9866 12.9196 39.215 20.0323 36.6516C20.9251 36.3312 21.8267 36.038 22.736 35.7722C23.7192 39.0774 25.0087 42.5331 26.5648 46.0277C24.9885 49.5743 23.6806 53.0851 22.6884 56.4291C22.0371 56.2364 21.3905 56.0271 20.7492 55.8016ZM24.5477 29.0749C23.0712 21.2754 24.0516 15.392 26.5189 13.9157C29.1472 12.3431 34.9582 14.5856 41.0832 20.2073C41.4747 20.5667 41.8679 20.9429 42.2618 21.3321C39.9798 23.8654 37.7245 26.7494 35.5701 29.8925C31.8756 30.2464 28.3389 30.815 25.0876 31.5765C24.8873 30.7473 24.7073 29.9134 24.5477 29.0749ZM58.4327 37.724C57.6647 36.3527 56.8683 34.9988 56.0439 33.663C58.5505 33.99 60.9518 34.4249 63.2067 34.9571C62.5298 37.2 61.686 39.5453 60.6924 41.9495C59.9665 40.5256 59.2131 39.1168 58.4327 37.724ZM44.6144 23.8111C46.1621 25.5444 47.7123 27.48 49.2372 29.5798C46.1441 29.4287 43.0458 29.428 39.9527 29.5776C41.4789 27.4972 43.0423 25.5645 44.6144 23.8111ZM30.7074 37.7477C29.9368 39.1294 29.1975 40.5296 28.4901 41.947C27.5128 39.551 26.6767 37.1953 25.9939 34.9205C28.2353 34.4019 30.6254 33.9782 33.1157 33.6565C32.282 35.0006 31.4791 36.3647 30.7074 37.7477ZM33.1873 58.4775C30.6146 58.1807 28.1883 57.7785 25.9477 57.2743C26.6413 54.9592 27.4958 52.5528 28.4939 50.1055C29.2043 51.524 29.9469 52.9249 30.721 54.3073C31.5109 55.7174 32.3332 57.1079 33.1873 58.4775ZM44.7072 68.3204C43.1167 66.5462 41.5303 64.584 39.9808 62.4734C41.4848 62.5345 43.0183 62.5654 44.5768 62.5654C46.1781 62.5654 47.761 62.5284 49.3189 62.4565C47.7892 64.6056 46.2445 66.5706 44.7072 68.3204ZM60.7244 49.9808C61.7743 52.4547 62.6595 54.8482 63.3624 57.1241C61.0846 57.6614 58.6256 58.094 56.0345 58.4153C56.8649 57.0546 57.6689 55.677 58.4462 54.2832C59.2364 52.8667 59.996 51.4322 60.7244 49.9808ZM55.5391 52.5503C54.3492 54.6872 53.0923 56.7834 51.7705 58.8358C49.4398 59.0079 47.0313 59.0967 44.5768 59.0967C42.1325 59.0967 39.7545 59.018 37.4645 58.8645C36.1084 56.8169 34.8278 54.7171 33.6253 52.5694C32.4285 50.4331 31.3105 48.2506 30.2739 46.0266C31.3079 43.8019 32.4225 41.6183 33.6152 39.4802V39.4809C34.8076 37.3424 36.0782 35.2515 37.4242 33.2127C39.7604 33.0302 42.1558 32.9346 44.5772 32.9346C47.0094 32.9346 49.4079 33.0309 51.7434 33.2149C53.0758 35.2505 54.3382 37.3342 55.5284 39.4619C56.7252 41.5952 57.8547 43.7682 58.9149 45.9774C57.8656 48.2091 56.7394 50.4015 55.5391 52.5503ZM62.462 13.8126C65.0924 15.3809 66.1155 21.7048 64.4628 29.9981C64.3544 30.5384 64.2367 31.0766 64.1096 31.6124C60.8506 30.8351 57.3115 30.2565 53.6062 29.8971C51.4476 26.7199 49.2111 23.8309 46.9659 21.3303C47.5543 20.744 48.1566 20.1729 48.7724 19.6176C54.572 14.4002 59.9923 12.3402 62.462 13.8126Z" fill="white"/>
<path d="M44.5769 38.6921C48.4511 38.6921 51.5915 41.9387 51.5915 45.9432C51.5915 49.9481 48.4511 53.1947 44.5769 53.1947C40.7029 53.1947 37.5622 49.9481 37.5622 45.9432C37.5622 41.9387 40.7029 38.6921 44.5769 38.6921Z" fill="#53C1DE"/>
</svg>
