<svg width="44" height="44" viewBox="0 0 44 44" fill="none" xmlns="http://www.w3.org/2000/svg">
<g clip-path="url(#clip0_53_321)">
<path d="M21.8105 23.3985C24.7358 23.3985 27.3202 24.0984 29.42 25.0137C31.3582 25.8751 32.5786 27.8134 32.5786 29.9132V32.8206H11.0423V29.9311C11.0423 27.8134 12.2627 25.8751 14.201 25.0316C16.3008 24.0984 18.8851 23.3985 21.8105 23.3985ZM7.45293 23.8471C9.42709 23.8471 11.0423 22.2319 11.0423 20.2578C11.0423 18.2836 9.42709 16.6684 7.45293 16.6684C5.47877 16.6684 3.86355 18.2836 3.86355 20.2578C3.86355 22.2319 5.47877 23.8471 7.45293 23.8471ZM9.48094 25.8213C8.8169 25.7136 8.15286 25.6418 7.45293 25.6418C5.67619 25.6418 3.98918 26.0187 2.46369 26.6827C1.13562 27.2571 0.27417 28.5492 0.27417 30.0029V32.8206H8.35028V29.9311C8.35028 28.4415 8.76306 27.0417 9.48094 25.8213ZM36.168 23.8471C38.1422 23.8471 39.7574 22.2319 39.7574 20.2578C39.7574 18.2836 38.1422 16.6684 36.168 16.6684C34.1938 16.6684 32.5786 18.2836 32.5786 20.2578C32.5786 22.2319 34.1938 23.8471 36.168 23.8471ZM43.3468 30.0029C43.3468 28.5492 42.4853 27.2571 41.1572 26.6827C39.6317 26.0187 37.9447 25.6418 36.168 25.6418C35.4681 25.6418 34.804 25.7136 34.14 25.8213C34.8579 27.0417 35.2706 28.4415 35.2706 29.9311V32.8206H43.3468V30.0029ZM21.8105 11.2843C24.7896 11.2843 27.1945 13.6892 27.1945 16.6684C27.1945 19.6476 24.7896 22.0524 21.8105 22.0524C18.8313 22.0524 16.4264 19.6476 16.4264 16.6684C16.4264 13.6892 18.8313 11.2843 21.8105 11.2843Z" fill="white"/>
</g>
<rect x="0.498506" y="0.74045" width="42.6239" height="42.6239" stroke="black" stroke-width="0.448673"/>
<defs>
<clipPath id="clip0_53_321">
<rect x="0.27417" y="0.516113" width="43.0726" height="43.0726" fill="white"/>
</clipPath>
</defs>
</svg>
