<svg xmlns="http://www.w3.org/2000/svg" viewBox="0 0 277.7 277.7"><defs><style>.cls-1,.cls-3,.cls-4{fill:none;stroke:#fff;stroke-miterlimit:10;}.cls-1{stroke-width:11px;}.cls-2{fill:#fff;}.cls-3{stroke-width:4px;}</style></defs><g id="Layer_2" data-name="Layer 2"><g id="Capa_1" data-name="Capa 1"><path d="M254.3,277.7H23.4A23.43,23.43,0,0,1,0,254.3V23.4A23.43,23.43,0,0,1,23.4,0H254.3a23.43,23.43,0,0,1,23.4,23.4V254.3A23.43,23.43,0,0,1,254.3,277.7Z"/><line class="cls-1" x1="141.7" y1="235.4" x2="141.7" y2="210.8"/><polygon class="cls-2" points="157.6 230.8 141.7 258.3 125.8 230.8 157.6 230.8"/><line class="cls-3" x1="89.7" y1="47.1" x2="89.7" y2="17.7"/><polygon class="cls-2" points="102.3 43.4 89.7 65.2 77.2 43.4 102.3 43.4"/><line class="cls-3" x1="136.8" y1="47.1" x2="136.8" y2="17.7"/><polygon class="cls-2" points="149.4 43.4 136.8 65.2 124.2 43.4 149.4 43.4"/><line class="cls-3" x1="183.9" y1="47.1" x2="183.9" y2="17.7"/><polygon class="cls-2" points="196.5 43.4 183.9 65.2 171.3 43.4 196.5 43.4"/><line class="cls-4" x1="56.5" y1="70.4" x2="222.8" y2="70.4"/><line class="cls-4" x1="58.6" y1="210.8" x2="224.9" y2="210.8"/><path class="cls-2" d="M188.6,136.7a46.64,46.64,0,0,0-35.2-45.3,3.71,3.71,0,1,0-1.8,7.2,39.43,39.43,0,0,1,6,74.3l3.4-8a3.72,3.72,0,0,0-6.8-3l-6.7,15.5a3.83,3.83,0,0,0,1.9,4.9l15.5,6.7a3.92,3.92,0,0,0,4.9-1.9,3.83,3.83,0,0,0-1.9-4.9l-6.8-2.9a46.72,46.72,0,0,0,27.5-42.6Z"/><path class="cls-2" d="M131.9,174.9a39.41,39.41,0,0,1-6.6-74l-3.2,7.4a3.7,3.7,0,0,0,1.9,4.9,3.77,3.77,0,0,0,4.9-1.9l6.7-15.6a3.58,3.58,0,0,0-1.9-4.9l-15.5-6.7a3.72,3.72,0,0,0-3,6.8l7.2,3.1a46.82,46.82,0,0,0,7.7,88,3.56,3.56,0,0,0,4.5-2.7,3.64,3.64,0,0,0-2.7-4.4Z"/><path class="cls-2" d="M150.5,150.7a10.35,10.35,0,0,0,2.8-7.4,9.52,9.52,0,0,0-.7-3.8,9.07,9.07,0,0,0-1.9-3,10.54,10.54,0,0,0-3.3-2.2,42.86,42.86,0,0,0-4.3-1.3V120.6a5.93,5.93,0,0,1,3.3,1.8,7.8,7.8,0,0,1,1.6,3.9l4.4-.7a9.62,9.62,0,0,0-3.4-6.4,10.47,10.47,0,0,0-5.9-2.2v-2h-2.5v2a11.78,11.78,0,0,0-6.4,2.3,9.37,9.37,0,0,0-3.3,7.4,9.77,9.77,0,0,0,1.1,4.6,7.6,7.6,0,0,0,3.2,3.2,18.88,18.88,0,0,0,5.4,2v13.8a6,6,0,0,1-4.3-2.6,12.47,12.47,0,0,1-1.8-5.1l-4.3.8a12.72,12.72,0,0,0,1.7,5.7,8.74,8.74,0,0,0,3.5,3.4,14,14,0,0,0,5.2,1.4v4.3h2.5v-4.3a10.34,10.34,0,0,0,7.4-3.2Zm-9.9-18.2a8.79,8.79,0,0,1-4.2-2.4,5.17,5.17,0,0,1-1.2-3.7,5.56,5.56,0,0,1,1.4-3.8,6.68,6.68,0,0,1,3.9-2v11.9Zm6.6,15.6a6.67,6.67,0,0,1-4.1,2.2V137.2c2.3.8,3.9,1.6,4.6,2.5a5.59,5.59,0,0,1,1.2,3.8,6.52,6.52,0,0,1-1.7,4.6Z"/></g></g></svg>