<svg width="158" height="77" viewBox="0 0 158 77" fill="none" xmlns="http://www.w3.org/2000/svg">
<path d="M26.4102 37.948C26.8953 35.0392 27.0099 34.95 29.2574 30.2004L32.4078 24.0071C29.1095 24.0071 25.8111 24.157 25.2115 24.7566C24.0121 25.9558 22.5741 29.3176 21.9391 31.5235C21.5806 32.7694 20.6438 35.4603 20.4139 36.7488C20.4139 36.7488 24.6118 49.9402 33.0075 52.3387C26.4102 46.9422 25.8105 41.5457 26.4102 37.948Z" fill="#5837D0"/>
<path d="M40.0887 39.0972C40.0161 38.3024 39.8096 37.6008 39.2272 37.0185C38.7174 36.5089 31.3552 36.5775 30.6222 36.6101C30.6222 36.6101 30.6302 36.6101 30.6222 38.409C30.6082 41.5149 36.5352 39.5495 36.6052 40.3157C36.7684 42.0886 36.6192 42.6062 36.0195 44.4051C35.4198 46.2039 34.2204 46.8035 32.4213 46.8035C28.8231 46.8035 26.4243 42.6062 27.6237 36.6101C28.8231 30.614 33.1409 24.0183 32.4213 24.0183C29.4228 24.0183 27.6903 24.0183 26.4909 25.8171C24.7951 28.3642 23.9476 31.1423 22.9214 34.0405C22.3805 35.5847 22.0493 37.1944 21.9366 38.8267C21.81 40.5416 21.8233 42.3044 22.2158 43.9733C22.5689 45.4724 23.3139 46.9827 24.0948 48.3132C24.9391 49.7522 26.1518 51.098 27.6337 51.8988C28.3667 52.2986 29.1829 52.6264 30.0118 52.7649C31.1159 52.9502 33.1622 52.9648 34.2684 52.7496C36.0841 52.3992 37.6287 51.1194 38.5822 49.577C39.547 48.0154 39.8635 46.1992 40.0568 44.4077C40.2436 42.643 40.2543 40.864 40.0887 39.0972Z" fill="#5837D0" fill-opacity="0.58"/>
<path d="M19.8137 37.3484L15.176 25.9718C14.7767 25.1859 14.0907 24.5834 13.2597 24.2889C12.4867 24.0257 11.4439 24.0544 10.7156 24.4541L10.6676 24.4814L10.6516 24.4861C10.0386 24.7033 9.44425 25.0917 9.06511 25.6726C8.77279 26.0303 8.56444 26.449 8.45541 26.8978C7.1534 32.3023 6.06506 37.7608 5.19039 43.2732C5.18706 43.2965 5.18306 43.3205 5.17973 43.3445H11.1467C11.4592 41.3051 11.7957 39.2845 12.1575 37.4397C13.4389 40.5083 18.0159 52.9383 22.2138 52.9383H33.6081C25.211 52.3386 19.8137 37.3484 19.8137 37.3484Z" fill="#5837D0"/>
<path d="M10.7897 45.7427C10.8756 45.1431 10.9642 44.5435 11.0562 43.9438H5.09053C5.01324 44.5002 4.93794 45.1178 4.86465 45.7427H10.7897Z" fill="#5837D0"/>
<path d="M10.4514 48.1414C10.5333 47.5497 10.6173 46.9488 10.7039 46.3425H4.79754C4.72491 46.9695 4.65362 47.5864 4.58498 48.1414H10.4514Z" fill="#5837D0"/>
<path d="M4.50404 48.741C4.38254 49.1542 4.36469 49.591 4.45207 50.0128C4.46692 50.4304 4.58554 50.8377 4.79723 51.198C5.15172 51.8596 5.84603 52.4905 6.54235 52.6637C7.2913 52.8496 8.12888 52.809 8.79521 52.342C9.38958 51.9236 10.0286 51.236 10.1372 50.4365C10.2125 49.8842 10.2898 49.3179 10.3691 48.741H4.50404Z" fill="#5837D0"/>
<path d="M31.5078 28.3542L30.6083 30.1531C31.8477 30.253 34.1245 30.4962 36.0102 29.5535C36.5559 29.281 37.0644 28.8526 37.5188 28.3542H31.5078Z" fill="#5837D0"/>
<path d="M39.3884 25.3747C39.6823 24.6639 39.7762 24.1569 39.6083 24.1569C39.0493 24.1569 36.6691 24.1748 33.6067 24.1569L32.9976 25.3747H39.3884Z" fill="#5837D0"/>
<path d="M32.707 25.9557L31.8075 27.7545H38.0163C38.4414 27.1912 38.8122 26.5889 39.1238 25.9557H32.707Z" fill="#5837D0"/>
<rect y="15.212" width="45.8592" height="46.5757" rx="10.0513" fill="white"/>
<path d="M26.4102 37.948C26.8953 35.0392 27.0099 34.95 29.2574 30.2004L32.4078 24.0071C29.1095 24.0071 25.8111 24.157 25.2115 24.7566C24.0121 25.9558 22.5741 29.3176 21.9391 31.5235C21.5806 32.7694 20.6438 35.4603 20.4139 36.7488C20.4139 36.7488 24.6118 49.9402 33.0075 52.3387C26.4102 46.9422 25.8105 41.5457 26.4102 37.948Z" fill="#5837D0"/>
<path d="M40.0887 39.0972C40.0161 38.3024 39.8096 37.6008 39.2272 37.0185C38.7174 36.5089 31.3552 36.5775 30.6222 36.6101C30.6222 36.6101 30.6302 36.6101 30.6222 38.409C30.6082 41.5149 36.5352 39.5495 36.6052 40.3157C36.7684 42.0886 36.6192 42.6062 36.0195 44.4051C35.4198 46.2039 34.2204 46.8035 32.4213 46.8035C28.8231 46.8035 26.4243 42.6062 27.6237 36.6101C28.8231 30.614 33.1409 24.0183 32.4213 24.0183C29.4228 24.0183 27.6903 24.0183 26.4909 25.8171C24.7951 28.3642 23.9476 31.1423 22.9214 34.0405C22.3805 35.5847 22.0493 37.1944 21.9366 38.8267C21.81 40.5416 21.8233 42.3044 22.2158 43.9733C22.5689 45.4724 23.3139 46.9827 24.0948 48.3132C24.9391 49.7522 26.1518 51.098 27.6337 51.8988C28.3667 52.2986 29.1829 52.6264 30.0118 52.7649C31.1159 52.9502 33.1622 52.9648 34.2684 52.7496C36.0841 52.3992 37.6287 51.1194 38.5822 49.577C39.547 48.0154 39.8635 46.1992 40.0568 44.4077C40.2436 42.643 40.2543 40.864 40.0887 39.0972Z" fill="#9747FF"/>
<path d="M19.8137 37.3484L15.176 25.9718C14.7767 25.1859 14.0907 24.5834 13.2597 24.2889C12.4867 24.0257 11.4439 24.0544 10.7156 24.4541L10.6676 24.4814L10.6516 24.4861C10.0386 24.7033 9.44425 25.0917 9.06511 25.6726C8.77279 26.0303 8.56444 26.449 8.45541 26.8978C7.1534 32.3023 6.06506 37.7608 5.19039 43.2732C5.18706 43.2965 5.18306 43.3205 5.17973 43.3445H11.1467C11.4592 41.3051 11.7957 39.2845 12.1575 37.4397C13.4389 40.5083 18.0159 52.9383 22.2138 52.9383H33.6081C25.211 52.3386 19.8137 37.3484 19.8137 37.3484Z" fill="#5837D0"/>
<path d="M10.7897 45.7427C10.8756 45.1431 10.9642 44.5435 11.0562 43.9438H5.09053C5.01324 44.5002 4.93794 45.1178 4.86465 45.7427H10.7897Z" fill="#5837D0"/>
<path d="M10.4514 48.1414C10.5333 47.5497 10.6173 46.9488 10.7039 46.3425H4.79754C4.72491 46.9695 4.65362 47.5864 4.58498 48.1414H10.4514Z" fill="#5837D0"/>
<path d="M4.50404 48.741C4.38254 49.1542 4.36469 49.591 4.45207 50.0128C4.46692 50.4304 4.58554 50.8377 4.79723 51.198C5.15172 51.8596 5.84603 52.4905 6.54235 52.6637C7.2913 52.8496 8.12888 52.809 8.79521 52.342C9.38958 51.9236 10.0286 51.236 10.1372 50.4365C10.2125 49.8842 10.2898 49.3179 10.3691 48.741H4.50404Z" fill="#5837D0"/>
<path d="M31.5078 28.3542L30.6083 30.1531C31.8477 30.253 34.1245 30.4962 36.0102 29.5535C36.5559 29.281 37.0644 28.8526 37.5188 28.3542H31.5078Z" fill="#5837D0"/>
<path d="M39.3884 25.3747C39.6823 24.6639 39.7762 24.1569 39.6083 24.1569C39.0493 24.1569 36.6691 24.1748 33.6067 24.1569L32.9976 25.3747H39.3884Z" fill="#5837D0"/>
<path d="M32.707 25.9557L31.8075 27.7545H38.0163C38.4414 27.1912 38.8122 26.5889 39.1238 25.9557H32.707Z" fill="#5837D0"/>
<path d="M53.433 38.5H64.118" stroke="white" stroke-width="6.91029"/>
<path d="M88.4948 31.4772L88.514 31.3044C88.5268 31.0867 88.5332 30.7667 88.5332 30.3442V30.0945C88.5332 29.7745 88.5076 29.4288 88.4564 29.0576C88.418 28.6863 88.3348 28.3726 88.2068 28.1166C88.0915 27.9245 87.9379 27.8285 87.7459 27.8285C87.6947 27.8285 87.5858 27.8541 87.4194 27.9053C87.2658 27.9437 86.9713 28.2446 86.5361 28.8079C86.1008 29.3584 85.5631 30.2354 84.923 31.4388L84.8846 31.5156C84.5773 32.1173 84.2444 32.6934 83.886 33.2439C83.0282 34.5753 82.2345 35.9452 81.5047 37.3534C81.4791 37.4047 81.4535 37.4495 81.4279 37.4879V37.7567C81.4919 37.7439 81.556 37.7375 81.62 37.7375L82.0424 37.6991C82.9002 37.5583 83.7516 37.4111 84.5965 37.2574C85.5311 37.1038 86.472 36.9502 87.4194 36.7965C87.6883 36.7581 87.8611 36.7069 87.9379 36.6429C88.0275 36.5661 88.0851 36.3805 88.1107 36.086C88.1107 36.022 88.1235 35.8428 88.1491 35.5483C88.1875 35.2411 88.2196 34.8826 88.2452 34.4729C88.2836 34.0504 88.322 33.628 88.3604 33.2055C88.3988 32.783 88.4308 32.4118 88.4564 32.0917C88.482 31.7972 88.4948 31.5924 88.4948 31.4772ZM72.5559 52.3321C72.5943 52.2425 72.6263 52.1529 72.652 52.0633C72.6263 52.0633 72.5943 52.0569 72.5559 52.0441V52.3321ZM72.5559 52.3321V52.3898C72.5431 52.4026 72.5367 52.4154 72.5367 52.4282V52.4474L72.5751 52.409C72.5751 52.3833 72.5687 52.3577 72.5559 52.3321ZM72.5367 52.4474C72.4087 52.5754 72.2935 52.729 72.1911 52.9082C72.1143 53.0363 72.0246 53.1643 71.9222 53.2923C71.8326 53.4075 71.6982 53.51 71.5189 53.5996C71.5189 52.921 71.6022 52.2873 71.7686 51.6984C71.7686 51.66 71.775 51.6216 71.7878 51.5832C71.8646 51.2631 71.9542 50.9495 72.0566 50.6422C72.1079 50.4502 72.1655 50.2582 72.2295 50.0661C72.2807 49.8485 72.3255 49.6309 72.3639 49.4132V49.3556C72.3767 49.2916 72.3831 49.2276 72.3831 49.1636C72.3831 49.0355 72.4023 48.9267 72.4407 48.8371C72.6071 48.5043 72.7288 48.1586 72.8056 47.8001C72.8696 47.4033 73.004 47.032 73.2089 46.6863C73.2729 46.5711 73.3241 46.4431 73.3625 46.3023C73.5289 45.5469 73.7273 44.8044 73.9578 44.0747C73.9834 43.9978 73.9962 43.9338 73.9962 43.8826C73.9962 43.6778 73.8618 43.5434 73.5929 43.4793H73.5353C73.5097 43.4793 73.4905 43.4729 73.4777 43.4601C72.9528 43.2425 72.4087 43.0761 71.8454 42.9609L71.1157 42.7688H71.0773C70.962 42.7432 70.8468 42.692 70.7316 42.6152C70.6292 42.5512 70.578 42.4232 70.578 42.2311V42.1735C70.6932 42.0967 70.8084 42.0519 70.9236 42.0391L71.1157 42.0199L71.3077 42.0391C71.4229 42.0391 71.5382 42.0327 71.6534 42.0199C71.8838 41.9943 72.1335 41.9687 72.4023 41.9431C72.5175 41.9303 72.6456 41.9175 72.7864 41.9047C72.7096 41.8022 72.6456 41.7126 72.5943 41.6358C72.5047 41.5206 72.4215 41.4054 72.3447 41.2902C72.4599 41.2133 72.5687 41.1365 72.6712 41.0597C72.7224 41.0213 72.7672 40.9829 72.8056 40.9445C72.716 40.8677 72.6135 40.7845 72.4983 40.6948C72.4343 40.6308 72.3639 40.5668 72.2871 40.5028C72.3767 40.4516 72.4599 40.4004 72.5367 40.3492C72.6904 40.2468 72.8376 40.1635 72.9784 40.0995C73.1192 40.0355 73.2665 39.9715 73.4201 39.9075C73.9066 39.6771 74.4059 39.4978 74.918 39.3698C75.5069 39.2418 75.9101 38.9089 76.1278 38.3712C77.4848 35.4523 78.9443 32.5846 80.5062 29.7681C81.1463 28.6031 81.844 27.4701 82.5993 26.3691C83.2011 25.5497 83.8476 24.7688 84.5389 24.0262C84.8846 23.6806 85.2622 23.3733 85.6719 23.1045C86.4912 22.5796 87.317 22.3171 88.1491 22.3171C88.4052 22.3171 88.8725 22.3811 89.551 22.5092C90.2423 22.6372 90.9336 23.0597 91.625 23.7766C92.3035 24.5191 92.7964 25.3577 93.1036 26.2923C93.4237 27.2652 93.6157 28.2638 93.6797 29.288C93.7309 30.0177 93.7566 30.7475 93.7566 31.4772C93.7566 32.4886 93.7053 33.5064 93.6029 34.5305C93.5901 34.6073 93.5773 34.6778 93.5645 34.7418C93.5133 35.0874 93.4877 35.4395 93.4877 35.798C93.4877 35.99 93.4941 36.1884 93.5069 36.3933C93.7886 36.5213 94.0766 36.5853 94.3711 36.5853C94.4479 36.5853 94.5247 36.5789 94.6015 36.5661H94.7743C95.0816 36.5661 95.3952 36.6173 95.7153 36.7197C95.3824 36.7837 95.0688 36.8285 94.7743 36.8542C94.3135 36.8926 93.8782 36.9822 93.4685 37.123C94.6975 37.2126 95.8945 37.4239 97.0595 37.7567C97.0724 37.7695 97.0852 37.7951 97.098 37.8335C97.098 37.8463 97.1108 37.8719 97.1364 37.9103C96.8931 38.0256 96.6307 38.0832 96.349 38.0832H96.2722C95.9906 38.0832 95.7153 38.1536 95.4465 38.2944C95.5361 38.3456 95.6065 38.3968 95.6577 38.448C95.7089 38.4864 95.7601 38.5185 95.8113 38.5441C95.4273 38.8897 94.9856 39.0626 94.4863 39.0626H94.4287C94.147 39.0626 93.8654 39.0882 93.5837 39.1394C93.5325 39.165 93.4749 39.2226 93.4109 39.3122C93.3725 39.3762 93.3277 39.4402 93.2765 39.5042C93.6989 39.5298 94.1086 39.5554 94.5055 39.581C95.2096 39.6323 95.8881 39.6771 96.5411 39.7155C96.6307 39.7923 96.6755 39.8627 96.6755 39.9267V39.9843C96.6755 40.0227 96.6563 40.0739 96.6179 40.1379L96.5795 40.2148C96.6307 40.2532 96.6755 40.2916 96.7139 40.33C96.8419 40.4324 96.9763 40.5412 97.1172 40.6564C96.9379 40.6948 96.7715 40.7333 96.6179 40.7717C96.1826 40.8741 95.7601 40.9637 95.3504 41.0405C95.2992 41.0533 95.2416 41.0597 95.1776 41.0597C95.1264 41.0597 95.0688 41.0533 95.0048 41.0405C94.9536 41.0277 94.9024 41.0213 94.8512 41.0213C94.3007 40.9701 93.6797 40.9125 92.9884 40.8485C92.9372 40.8485 92.8796 40.8421 92.8156 40.8293C93.2509 41.0981 93.6797 41.2389 94.1022 41.2517C94.4479 41.2773 94.7615 41.3606 95.0432 41.5014L93.8526 41.655C93.4685 41.7062 93.0716 41.7574 92.662 41.8086C92.5851 42.0391 92.4955 42.2759 92.3931 42.5192C92.1115 43.1465 91.945 43.825 91.8938 44.5547C91.881 44.7212 91.8426 44.8876 91.7786 45.054C91.3817 45.9118 91.0873 46.8015 90.8952 47.7233C90.7544 48.3506 90.5752 48.9779 90.3575 49.6052L90.0887 50.4502C89.9991 50.3862 89.9159 50.3286 89.839 50.2774C89.5958 50.5078 89.423 50.7895 89.3206 51.1223C89.2309 51.4936 89.1349 51.8585 89.0325 52.2169C88.7893 52.9467 88.6164 53.702 88.514 54.4829C88.4884 54.6238 88.418 54.771 88.3028 54.9246C88.1875 55.0654 88.0595 55.1807 87.9187 55.2703C87.8931 55.2959 87.8611 55.3215 87.8227 55.3471C87.7075 55.4239 87.605 55.5071 87.5154 55.5967C87.4258 55.6863 87.3554 55.7952 87.3042 55.9232C87.253 56.0512 87.1698 56.1472 87.0545 56.2112C86.9777 56.2496 86.8945 56.2688 86.8049 56.2688C86.7153 56.2688 86.6385 56.2624 86.5745 56.2496C86.4976 56.224 86.4464 56.1792 86.4208 56.1152C86.3952 56.0512 86.3824 55.9744 86.3824 55.8848V55.6735C86.3824 55.6095 86.3888 55.5583 86.4016 55.5199C86.4144 55.4815 86.4272 55.4431 86.44 55.4047C86.4528 55.3535 86.4656 55.2895 86.4784 55.2127C86.4912 55.1358 86.504 55.0206 86.5168 54.867C86.5425 54.7006 86.5681 54.4765 86.5937 54.1949H85.9407C85.9279 54.1949 85.9151 54.1949 85.9023 54.1949C85.9023 54.1821 85.8959 54.1629 85.8831 54.1373C85.8703 54.1117 85.8639 54.0733 85.8639 54.022C85.7871 54.0476 85.7039 54.1117 85.6143 54.2141C85.5759 54.2653 85.5247 54.3165 85.4607 54.3677C85.4094 54.4061 85.3582 54.4317 85.307 54.4445L85.2302 54.2909C85.179 54.1885 85.1406 54.0861 85.115 53.9836V53.926C85.0894 53.6828 85.0766 53.4395 85.0766 53.1963C85.0766 53.0299 85.083 52.8698 85.0958 52.7162C85.1342 52.3449 85.1534 51.9801 85.1534 51.6216V51.3528C85.1534 51.0711 85.1662 50.7959 85.1918 50.527C85.2686 49.9509 85.3966 49.3748 85.5759 48.7987C85.6015 48.6963 85.6271 48.6003 85.6527 48.5107C85.7935 48.0882 85.8639 47.6465 85.8639 47.1856C85.8767 46.6991 85.9792 46.2254 86.1712 45.7646C86.4656 44.766 86.6577 43.729 86.7473 42.6536L86.7857 42.3079L86.5553 42.2311C86.4016 42.1543 86.2544 42.1159 86.1136 42.1159C85.1406 42.1415 84.1676 42.1863 83.1947 42.2503C82.4649 42.3143 81.7288 42.3847 80.9863 42.4616C80.5126 42.5 80.0325 42.5448 79.546 42.596C79.4436 42.596 79.3348 42.5896 79.2195 42.5768C79.1683 42.5768 79.1171 42.5704 79.0659 42.5576C79.0403 42.596 79.0083 42.6344 78.9699 42.6728C78.9187 42.724 78.8803 42.7816 78.8547 42.8456C78.6882 43.2681 78.5154 43.6842 78.3362 44.0939C78.0289 44.7596 77.7665 45.4381 77.5488 46.1294C77.3824 46.7439 77.1584 47.3328 76.8767 47.8961C76.6207 48.4594 76.4414 49.0483 76.339 49.6629L76.3006 49.7781L76.2622 50.0085C76.2238 50.2134 76.1726 50.4118 76.1086 50.6038C76.0446 50.7831 75.9165 50.9431 75.7245 51.0839C75.4301 51.9929 74.9564 52.7994 74.3035 53.5036C74.2394 53.5804 74.1946 53.6764 74.169 53.7916C74.1562 53.8556 74.137 53.9196 74.1114 53.9836C73.7401 54.803 73.3689 55.6287 72.9976 56.4609C72.908 56.6913 72.716 56.8578 72.4215 56.9602C72.3703 56.8193 72.3447 56.6849 72.3447 56.5569C72.3447 56.5057 72.3447 56.4289 72.3447 56.3265C72.3575 56.224 72.3959 56.096 72.4599 55.9424C72.4983 55.8016 72.5303 55.6671 72.5559 55.5391C72.6071 55.2575 72.6776 54.9822 72.7672 54.7134C72.8184 54.5469 72.8696 54.3869 72.9208 54.2333C72.9592 54.0797 73.0104 53.9196 73.0744 53.7532C73.2025 53.4587 73.2857 53.1067 73.3241 52.697C73.2473 52.7866 73.1704 52.8698 73.0936 52.9467C72.8504 53.2027 72.5815 53.4843 72.2871 53.7916C72.2999 53.7148 72.3127 53.6444 72.3255 53.5804C72.4023 53.1451 72.4727 52.7674 72.5367 52.4474ZM102.74 23.4117C102.919 23.3989 103.079 23.4309 103.22 23.5077C103.361 23.5718 103.463 23.6998 103.527 23.8918C103.604 23.8918 103.681 23.8982 103.757 23.911C103.745 23.9238 103.738 23.9302 103.738 23.9302C103.725 23.943 103.713 23.9558 103.7 23.9686C103.661 23.943 103.629 23.9174 103.604 23.8918C103.591 23.879 103.572 23.8662 103.546 23.8534C103.508 23.8534 103.463 23.847 103.412 23.8342C103.271 23.8214 103.137 23.7894 103.009 23.7382C102.893 23.687 102.81 23.5718 102.759 23.3925C102.516 23.4949 102.26 23.6038 101.991 23.719C101.927 23.7574 101.863 23.7894 101.799 23.815C101.888 23.879 101.946 23.9558 101.972 24.0454C102.01 24.1223 102.029 24.2119 102.029 24.3143C102.042 24.4167 102.061 24.5127 102.087 24.6023C102.112 24.6792 102.176 24.7432 102.279 24.7944C102.522 24.8968 102.778 24.9736 103.047 25.0248C103.149 25.0504 103.258 25.0824 103.373 25.1208C103.437 25.1336 103.508 25.1528 103.585 25.1785C103.687 25.1913 103.783 25.2169 103.873 25.2553C103.911 25.2553 103.95 25.2553 103.988 25.2553C104.052 25.2681 104.11 25.2873 104.161 25.3129C104.212 25.3385 104.244 25.4025 104.257 25.5049C103.898 25.5433 103.527 25.5753 103.143 25.6009C103.015 25.6137 102.887 25.6265 102.759 25.6393C102.721 25.8314 102.676 26.0746 102.624 26.3691C102.599 26.3819 102.567 26.3883 102.528 26.3883C102.503 26.3883 102.471 26.3819 102.432 26.3691C102.356 26.3563 102.272 26.3627 102.183 26.3883C102.106 26.4011 102.036 26.4651 101.972 26.5803C102.048 26.6315 102.119 26.6827 102.183 26.7339C102.349 26.8492 102.509 26.958 102.663 27.0604C102.868 27.1756 103.079 27.278 103.297 27.3676C103.309 27.3676 103.322 27.3676 103.335 27.3676C103.399 27.3932 103.469 27.4125 103.546 27.4253C103.649 27.4253 103.745 27.4445 103.834 27.4829C103.924 27.5085 104.001 27.5917 104.065 27.7325C103.975 27.7325 103.892 27.7261 103.815 27.7133C103.661 27.7005 103.521 27.7069 103.393 27.7325C103.341 27.7325 103.29 27.7261 103.239 27.7133C103.162 27.6877 103.092 27.6877 103.028 27.7133C102.964 27.7261 102.906 27.7965 102.855 27.9245C103.009 27.963 103.162 28.0014 103.316 28.0398C103.674 28.1294 104.026 28.219 104.372 28.3086C104.743 28.411 104.897 28.6479 104.833 29.0191C104.82 29.0319 104.814 29.0447 104.814 29.0576C104.737 29.5952 104.647 30.1265 104.545 30.6514C104.174 32.2773 103.719 33.884 103.181 35.4715C103.143 35.5995 103.092 35.734 103.028 35.8748C102.977 35.99 102.932 36.1116 102.893 36.2396C102.804 36.5213 102.714 36.8029 102.624 37.0846C102.586 37.1998 102.554 37.3214 102.528 37.4495C102.452 37.6927 102.381 37.9359 102.317 38.1792C102.176 38.7425 101.991 39.2866 101.76 39.8115C101.645 40.0931 101.543 40.3748 101.453 40.6564C101.325 41.1429 101.114 41.591 100.819 42.0007C100.768 42.1031 100.743 42.2183 100.743 42.3463C100.743 42.3976 100.736 42.4488 100.723 42.5C100.711 42.628 100.698 42.756 100.685 42.884C100.685 43.1529 100.64 43.4025 100.551 43.633C100.205 44.4395 99.9104 45.2653 99.6672 46.1102C99.4879 46.6863 99.2959 47.2624 99.0911 47.8385C99.0526 47.9025 99.0206 47.973 98.995 48.0498C98.9182 48.3442 98.7902 48.6195 98.611 48.8755C98.5214 49.0419 98.4637 49.234 98.4381 49.4516C98.4253 49.49 98.4189 49.5284 98.4189 49.5668C98.3549 49.8229 98.3037 50.0853 98.2653 50.3542C98.2525 50.4694 98.2397 50.5846 98.2269 50.6998C98.3165 50.5462 98.4061 50.399 98.4957 50.2582C98.7134 49.8997 98.931 49.5412 99.1487 49.1828C99.1999 49.106 99.2639 49.0227 99.3407 48.9331C99.3791 48.8819 99.4175 48.8307 99.4559 48.7795C99.4815 48.8307 99.5071 48.8755 99.5327 48.9139C99.5583 48.9651 99.5711 49.0035 99.5711 49.0291C99.3791 49.4772 99.1743 49.9125 98.9566 50.335C98.8798 50.5014 98.7646 50.6294 98.611 50.719C98.5854 50.7319 98.547 50.7383 98.4957 50.7383C98.4573 50.7255 98.4125 50.7126 98.3613 50.6998C98.3101 50.687 98.2653 50.6806 98.2269 50.6806C98.1885 50.6806 98.1501 50.6806 98.1117 50.6806C97.51 50.8215 96.9083 50.8087 96.3066 50.6422C96.0505 50.5654 95.8265 50.6294 95.6344 50.8343C95.7112 50.8983 95.7881 50.9559 95.8649 51.0071C95.9801 51.0839 96.0889 51.1607 96.1913 51.2375C96.1657 51.3272 96.1465 51.4104 96.1337 51.4872C96.1209 51.5 96.1145 51.5192 96.1145 51.5448C96.1273 51.5192 96.1401 51.5 96.1529 51.4872C96.1785 51.4488 96.2105 51.4168 96.2489 51.3912C96.2617 51.3912 96.2809 51.3912 96.3066 51.3912C96.3194 51.3912 96.3386 51.3976 96.3642 51.4104C96.377 51.4104 96.3962 51.4104 96.4218 51.4104C96.409 51.4232 96.3962 51.436 96.3834 51.4488C96.3578 51.4744 96.3322 51.4936 96.3066 51.5064C96.2681 51.5064 96.2297 51.5064 96.1913 51.5064C96.1657 51.5064 96.1401 51.5128 96.1145 51.5256C95.8841 51.308 95.6472 51.1991 95.404 51.1991C95.1479 51.1863 94.8855 51.2183 94.6166 51.2952C94.6423 51.3848 94.6679 51.468 94.6935 51.5448C94.7831 51.8136 94.8599 52.0633 94.9239 52.2937C95.2568 52.473 95.6088 52.601 95.9801 52.6778C96.313 52.7546 96.6394 52.8698 96.9595 53.0235C96.6778 53.1003 96.3962 53.1515 96.1145 53.1771C96.0249 53.1899 95.9353 53.2027 95.8457 53.2155C95.7689 53.2283 95.6984 53.2475 95.6344 53.2731C95.5704 53.2987 95.5192 53.3371 95.4808 53.3883C95.4296 53.4779 95.404 53.5804 95.404 53.6956C95.404 53.7596 95.3976 53.8172 95.3848 53.8684C95.3592 53.894 95.3272 53.9132 95.2888 53.926C95.2504 53.926 95.2056 53.926 95.1543 53.926C95.0775 53.926 95.0071 53.9452 94.9431 53.9836C94.8663 54.0092 94.8151 54.0925 94.7895 54.2333C94.9431 54.3101 95.0903 54.3997 95.2312 54.5021C95.5 54.707 95.8009 54.8542 96.1337 54.9438C96.3642 55.0078 96.6138 55.0718 96.8827 55.1358C97.0107 55.1743 97.1579 55.2191 97.3243 55.2703C97.3115 55.2703 97.2987 55.2703 97.2859 55.2703C96.7226 55.3087 96.2297 55.3407 95.8073 55.3663C96.537 55.776 97.2987 55.9872 98.0925 56C98.963 56.0128 99.7952 55.904 100.589 55.6735C101.383 55.4303 102.157 55.1422 102.913 54.8094C103.053 54.7582 103.194 54.707 103.335 54.6558C103.809 54.4509 104.206 54.1565 104.526 53.7724C104.846 53.3755 105.134 52.9595 105.39 52.5242C105.415 52.4858 105.441 52.4538 105.467 52.4282C105.479 52.3898 105.492 52.3449 105.505 52.2937C105.531 52.2297 105.543 52.1785 105.543 52.1401C105.556 52.0889 105.55 52.0505 105.524 52.0249C105.447 51.9481 105.403 51.8585 105.39 51.756C105.377 51.6536 105.371 51.5512 105.371 51.4488C105.371 51.3336 105.358 51.2247 105.332 51.1223C105.307 51.0071 105.236 50.9047 105.121 50.8151C105.172 50.7511 105.23 50.687 105.294 50.623C105.409 50.495 105.511 50.367 105.601 50.239C105.678 50.1237 105.716 50.0085 105.716 49.8933C105.716 49.7781 105.659 49.6629 105.543 49.5476C105.428 49.522 105.313 49.5028 105.198 49.49C105.019 49.4644 104.846 49.426 104.679 49.3748C104.513 49.3236 104.366 49.234 104.238 49.106C104.238 49.0676 104.238 49.0291 104.238 48.9907C104.25 48.9139 104.27 48.8435 104.295 48.7795C105.217 46.2062 105.959 43.5818 106.523 40.9061C107.035 38.5889 107.566 36.278 108.117 33.9736C108.309 33.1415 108.405 32.3093 108.405 31.4772C108.405 31.0163 108.437 30.5618 108.501 30.1137C108.514 29.9473 108.526 29.7809 108.539 29.6144C108.552 29.3968 108.558 29.1792 108.558 28.9615C108.558 28.5903 108.584 28.219 108.635 27.8477C108.686 27.8221 108.738 27.7965 108.789 27.7709C108.891 27.7069 108.994 27.6557 109.096 27.6173C109.25 27.5661 109.403 27.5213 109.557 27.4829C109.775 27.4189 109.986 27.3484 110.191 27.2716C110.78 27.0156 111.272 26.6635 111.669 26.2154C112.066 25.7674 112.418 25.2745 112.726 24.7368C112.738 24.6984 112.751 24.66 112.764 24.6216C112.777 24.5831 112.783 24.5447 112.783 24.5063C112.796 24.4679 112.796 24.4423 112.783 24.4295C112.694 24.3527 112.636 24.2631 112.61 24.1607C112.597 24.0583 112.591 23.9494 112.591 23.8342C112.591 23.7318 112.578 23.6294 112.553 23.527C112.527 23.4117 112.463 23.3157 112.361 23.2389C112.425 23.1621 112.489 23.0853 112.553 23.0085C112.668 22.842 112.777 22.6884 112.879 22.5476C112.956 22.4196 112.969 22.2979 112.918 22.1827C112.879 22.0675 112.796 21.9907 112.668 21.9523C112.425 21.9011 112.175 21.8499 111.919 21.7986C111.804 21.7858 111.689 21.7666 111.573 21.741C111.048 22.3683 110.427 22.7524 109.711 22.8932C109.467 22.9188 109.224 22.9573 108.981 23.0085C108.123 23.2005 107.259 23.2197 106.388 23.0661C106.286 23.0533 106.184 23.0597 106.081 23.0853C105.223 23.2901 104.372 23.2837 103.527 23.0661C103.169 22.9765 102.906 23.0917 102.74 23.4117ZM99.7248 48.0498C99.7248 48.0754 99.7248 48.0946 99.7248 48.1074C99.712 48.1458 99.7056 48.1842 99.7056 48.2226C99.7056 48.2226 99.7056 48.229 99.7056 48.2418C99.7056 48.2418 99.712 48.2418 99.7248 48.2418C99.7248 48.2162 99.7248 48.1906 99.7248 48.165C99.7248 48.1266 99.7184 48.0882 99.7056 48.0498C99.7184 48.037 99.7312 48.0242 99.744 48.0114C99.7824 47.973 99.8208 47.9409 99.8592 47.9153C99.8848 47.9025 99.9168 47.8897 99.9552 47.8769C99.9808 47.8769 100 47.8769 100.013 47.8769C100.026 47.8897 100.032 47.9025 100.032 47.9153C100.045 47.9409 100.051 47.9666 100.051 47.9922C100.051 48.005 100.051 48.0242 100.051 48.0498C100.038 48.0626 100.019 48.0818 99.9936 48.1074C99.968 48.1202 99.9424 48.1266 99.9168 48.1266C99.8656 48.1266 99.8208 48.1138 99.7824 48.0882C99.7568 48.0754 99.7376 48.0626 99.7248 48.0498ZM101.645 48.1458C101.632 48.1074 101.62 48.069 101.607 48.0306C101.555 47.9538 101.523 47.8705 101.511 47.7809C101.498 47.6913 101.543 47.6017 101.645 47.5121C101.645 47.7297 101.645 47.9409 101.645 48.1458C101.62 48.1714 101.594 48.1906 101.568 48.2034C101.517 48.2418 101.479 48.2866 101.453 48.3378C101.274 48.9139 101.095 49.49 100.915 50.0661C100.864 50.2582 100.813 50.4438 100.762 50.623C100.442 50.6614 100.307 50.5974 100.358 50.431C100.397 50.303 100.442 50.1814 100.493 50.0661C100.659 49.5668 100.858 49.0804 101.088 48.6067C101.165 48.4786 101.287 48.3698 101.453 48.2802C101.517 48.2418 101.581 48.197 101.645 48.1458ZM103.105 49.9893C103.105 50.0021 103.105 50.0149 103.105 50.0277C103.092 50.0405 103.085 50.0533 103.085 50.0661C103.085 50.0533 103.079 50.0469 103.066 50.0469C103.053 50.0213 103.041 49.9957 103.028 49.9701C103.028 49.9701 103.028 49.9637 103.028 49.9509C103.041 49.9381 103.047 49.9317 103.047 49.9317C103.06 49.9189 103.073 49.9125 103.085 49.9125C103.098 49.9381 103.105 49.9637 103.105 49.9893ZM126.513 40.7717L126.494 40.7525C126.634 40.6756 126.743 40.5796 126.82 40.4644C126.91 40.3492 126.993 40.2212 127.07 40.0803C127.121 39.9907 127.172 39.8947 127.223 39.7923C127.287 39.6899 127.351 39.5874 127.415 39.485C127.556 39.1906 127.755 38.9345 128.011 38.7169C128.036 38.5121 128.062 38.3008 128.088 38.0832C128.113 38.0832 128.132 38.0768 128.145 38.064C128.158 38.0384 128.171 38.0128 128.184 37.9872C128.209 37.9487 128.235 37.9231 128.26 37.9103C128.299 37.8975 128.344 37.9103 128.395 37.9488C128.408 37.9744 128.414 38.0064 128.414 38.0448C128.427 38.0832 128.427 38.1152 128.414 38.1408C128.363 38.2048 128.318 38.2304 128.28 38.2176C128.241 38.2048 128.203 38.1792 128.164 38.1408C128.139 38.1152 128.12 38.096 128.107 38.0832C128.094 38.096 128.088 38.1088 128.088 38.1216C128.062 38.3136 128.03 38.5057 127.991 38.6977C127.991 38.7361 127.985 38.7745 127.972 38.8129C127.959 38.9793 127.927 39.1394 127.876 39.293C127.825 39.4466 127.735 39.5938 127.607 39.7347C127.479 39.8883 127.39 40.0675 127.339 40.2724C127.198 40.6564 126.987 40.9893 126.705 41.2709C126.628 41.3606 126.558 41.4502 126.494 41.5398C126.43 41.6294 126.353 41.6806 126.263 41.6934C126.186 41.7062 126.103 41.7062 126.014 41.6934C125.962 41.6934 125.911 41.6934 125.86 41.6934C125.911 41.7446 125.969 41.7958 126.033 41.8471C126.11 41.9111 126.186 41.9879 126.263 42.0775C126.225 42.1671 126.186 42.2567 126.148 42.3463C126.046 42.6536 125.854 42.9545 125.572 43.2489C125.585 42.8776 125.655 42.5704 125.783 42.3271C125.796 42.3143 125.802 42.2951 125.802 42.2695C125.854 42.1543 125.873 42.0199 125.86 41.8663C125.86 41.8022 125.86 41.7446 125.86 41.6934C125.95 41.6806 126.007 41.6486 126.033 41.5974C126.058 41.5334 126.071 41.463 126.071 41.3862L126.09 41.4246C126.065 41.4502 126.026 41.4758 125.975 41.5014C125.886 41.5398 125.822 41.5974 125.783 41.6742C125.169 42.8776 124.458 44.017 123.652 45.0924C123.498 45.3101 123.344 45.5277 123.191 45.7454C122.218 47.2048 121.11 48.5491 119.868 49.7781C119.523 50.1237 119.152 50.4438 118.755 50.7383C118.371 51.0327 117.935 51.2503 117.449 51.3912C117.078 51.4936 116.719 51.6344 116.373 51.8136C115.964 52.0313 115.56 52.1273 115.164 52.1017C114.767 52.0633 114.363 51.9673 113.954 51.8136C113.864 51.7752 113.768 51.7368 113.666 51.6984C113.538 51.6472 113.403 51.596 113.262 51.5448C113.16 51.5192 113.051 51.5064 112.936 51.5064C112.885 51.5064 112.834 51.5064 112.782 51.5064C112.744 51.6088 112.718 51.6984 112.706 51.7752C112.68 51.8649 112.654 51.9481 112.629 52.0249C112.565 52.0249 112.501 52.0185 112.437 52.0057C112.36 52.0057 112.289 51.9993 112.225 51.9865C112.2 52.0761 112.174 52.1721 112.149 52.2745C112.11 52.4026 112.065 52.537 112.014 52.6778C111.784 52.4986 111.573 52.3065 111.381 52.1017C111.112 51.7816 110.785 51.5192 110.401 51.3144C110.376 51.3784 110.35 51.436 110.324 51.4872C110.273 51.6024 110.248 51.7112 110.248 51.8136C110.299 52.0953 110.395 52.3513 110.536 52.5818C110.804 52.9915 111.009 53.4267 111.15 53.8876C111.329 54.4253 111.656 54.8094 112.129 55.0398C112.821 55.3343 113.518 55.5839 114.223 55.7888C114.94 55.9936 115.688 56.0512 116.469 55.9616C116.7 55.9232 116.937 55.8976 117.18 55.8848C117.782 55.8464 118.364 55.7376 118.927 55.5583C119.03 55.5199 119.132 55.4879 119.235 55.4623C119.772 55.2703 120.304 55.059 120.829 54.8286C121.354 54.5853 121.846 54.2781 122.307 53.9068C122.499 53.7404 122.698 53.5932 122.903 53.4651C123.223 53.2603 123.517 53.0235 123.786 52.7546C124.183 52.3193 124.644 51.9673 125.169 51.6984C125.361 51.596 125.501 51.4744 125.591 51.3336C125.693 51.1927 125.783 51.0391 125.86 50.8727C125.95 50.6678 126.071 50.4822 126.225 50.3158C126.25 50.2902 126.27 50.2582 126.282 50.2198C126.308 50.1942 126.334 50.1686 126.359 50.1429C127.089 49.3876 127.716 48.5491 128.241 47.6273C128.42 47.3328 128.606 47.0448 128.798 46.7631C128.862 46.6607 128.926 46.5647 128.99 46.4751C129.374 45.9886 129.643 45.4445 129.797 44.8428C129.822 44.766 129.867 44.6956 129.931 44.6316C129.969 44.5931 130.001 44.5483 130.027 44.4971C130.181 44.2283 130.334 43.9594 130.488 43.6906C130.859 43.0633 131.205 42.4168 131.525 41.751C132.434 39.6899 133.093 37.5519 133.503 35.3371C133.772 34.0184 133.817 32.6934 133.637 31.362C133.381 29.6721 132.824 28.1806 131.967 26.8876C131.109 25.5945 129.918 24.5319 128.395 23.6998C126.961 22.9829 125.45 22.5796 123.863 22.49C123.018 22.3747 122.186 22.426 121.366 22.6436C121.11 22.7204 120.848 22.7716 120.579 22.7972C120.387 22.8228 120.201 22.8548 120.022 22.8932C119.792 22.9573 119.561 23.0405 119.331 23.1429C118.729 23.4373 118.147 23.7766 117.583 24.1607C117.314 24.3527 117.039 24.5319 116.757 24.6984C115.964 25.2233 115.253 25.8122 114.626 26.4651C114.549 26.5419 114.466 26.6187 114.376 26.6955C114.171 26.9132 113.992 27.1564 113.839 27.4253C113.787 27.5277 113.73 27.6237 113.666 27.7133C113.653 27.7389 113.647 27.7645 113.647 27.7901C113.659 27.8029 113.666 27.8221 113.666 27.8477C113.679 27.8733 113.685 27.8989 113.685 27.9245C113.877 27.963 114.069 27.995 114.261 28.0206C114.235 28.123 114.216 28.219 114.203 28.3086C114.178 28.3726 114.159 28.4366 114.146 28.5006C114.197 28.5391 114.248 28.5647 114.299 28.5775C114.363 28.5775 114.427 28.5711 114.491 28.5583C114.568 28.5455 114.639 28.5455 114.703 28.5583C114.78 28.5711 114.844 28.6159 114.895 28.6927C114.805 28.7951 114.722 28.8911 114.645 28.9807C114.453 29.1856 114.267 29.3776 114.088 29.5568C114.088 29.5696 114.082 29.576 114.069 29.576C113.928 29.7041 113.8 29.8449 113.685 29.9985C113.583 30.1521 113.512 30.3442 113.474 30.5746C113.538 30.5874 113.602 30.6002 113.666 30.613C113.781 30.6514 113.883 30.6514 113.973 30.613C114.383 30.4082 114.773 30.1778 115.144 29.9217C115.336 29.7681 115.554 29.6721 115.797 29.6337C116.578 29.5824 117.238 29.2624 117.775 28.6735C117.89 28.5455 118.025 28.4366 118.179 28.347C118.998 27.8221 119.849 27.4189 120.733 27.1372C121.616 26.8556 122.563 26.7659 123.575 26.8684C124.74 27.0604 125.79 27.4957 126.724 28.1742C126.814 28.2382 126.891 28.315 126.955 28.4046C127.006 28.4686 127.057 28.5327 127.108 28.5967C127.518 29.0832 127.851 29.6273 128.107 30.229C128.209 30.5618 128.267 30.9011 128.28 31.2467C128.28 31.6692 128.369 32.0725 128.548 32.4566C128.612 32.5846 128.632 32.7318 128.606 32.8982C128.606 32.9238 128.606 32.9495 128.606 32.9751C128.606 33.0775 128.593 33.1863 128.568 33.3015C128.555 33.3271 128.548 33.3527 128.548 33.3783C128.484 33.6728 128.414 33.9672 128.337 34.2617C128.171 34.9146 128.03 35.5675 127.915 36.2204C127.838 36.6173 127.729 37.0014 127.588 37.3726C127.447 37.7439 127.345 38.1344 127.281 38.5441C127.268 38.5825 127.249 38.6273 127.223 38.6785C127.198 38.7169 127.166 38.7553 127.127 38.7937C127.127 38.7937 127.127 38.8001 127.127 38.8129C126.718 39.4018 126.513 40.0547 126.513 40.7717ZM131.256 40.1956C131.256 40.2468 131.256 40.3044 131.256 40.3684C131.256 40.3428 131.256 40.3108 131.256 40.2724C131.256 40.2468 131.25 40.2212 131.237 40.1956C131.314 40.17 131.384 40.1443 131.448 40.1187C131.461 40.1187 131.467 40.1187 131.467 40.1187C131.467 40.1187 131.461 40.1251 131.448 40.1379C131.448 40.1507 131.448 40.1635 131.448 40.1764C131.448 40.1892 131.448 40.1956 131.448 40.1956C131.397 40.1956 131.352 40.1956 131.314 40.1956C131.288 40.1956 131.269 40.1956 131.256 40.1956ZM128.664 45.2461C128.856 45.5277 128.804 45.7518 128.51 45.9182C128.51 45.9054 128.516 45.867 128.529 45.803C128.542 45.739 128.561 45.6685 128.587 45.5917C128.612 45.5021 128.632 45.4253 128.644 45.3613C128.67 45.2845 128.683 45.2461 128.683 45.2461C129.028 44.8364 129.381 44.4203 129.739 43.9978C129.777 43.9594 129.809 43.921 129.835 43.8826C129.835 43.8314 129.835 43.7802 129.835 43.729C129.822 43.601 129.835 43.4793 129.873 43.3641C130.206 42.6472 130.552 41.9303 130.91 41.2133C130.936 41.1621 130.981 41.1173 131.045 41.0789C131.07 41.0533 131.09 41.0341 131.102 41.0213C131.205 41.0981 131.25 41.1749 131.237 41.2517C131.237 41.3158 131.218 41.3798 131.179 41.4438C131.166 41.4566 131.16 41.4758 131.16 41.5014C131.122 41.5654 131.09 41.6358 131.064 41.7126C130.795 42.3399 130.514 42.9609 130.219 43.5754C130.193 43.6138 130.155 43.6522 130.104 43.6906C130.053 43.7162 130.001 43.7418 129.95 43.7674C129.899 43.793 129.848 43.8186 129.797 43.8442C129.822 44.1515 129.758 44.4139 129.605 44.6316C129.451 44.8492 129.265 45.0476 129.048 45.2269C129.022 45.2397 128.984 45.2525 128.932 45.2653C128.894 45.2653 128.849 45.2653 128.798 45.2653C128.747 45.2525 128.702 45.2461 128.664 45.2461ZM127.895 42.7496C127.908 42.7752 127.915 42.7944 127.915 42.8072C127.915 42.82 127.915 42.8328 127.915 42.8456C127.915 42.8456 127.915 42.8392 127.915 42.8264C127.915 42.8392 127.915 42.8456 127.915 42.8456C127.915 42.82 127.908 42.7944 127.895 42.7688C127.806 42.6792 127.761 42.5896 127.761 42.5C127.761 42.4104 127.787 42.3143 127.838 42.2119C127.927 42.0071 128.024 41.8022 128.126 41.5974C128.292 41.2261 128.465 40.8677 128.644 40.522C128.875 40.0867 129.06 39.6387 129.201 39.1778C129.24 39.0369 129.297 38.9089 129.374 38.7937C129.413 38.7425 129.445 38.6913 129.47 38.6401C129.56 38.6529 129.617 38.6785 129.643 38.7169C129.669 38.7553 129.675 38.8001 129.662 38.8513C129.662 38.8897 129.656 38.9281 129.643 38.9665C129.528 39.3122 129.413 39.6707 129.297 40.0419C129.054 40.9125 128.721 41.751 128.299 42.5576C128.26 42.6344 128.209 42.6984 128.145 42.7496C128.094 42.8008 128.011 42.8008 127.895 42.7496ZM126.609 45.8222C126.698 45.6173 126.788 45.4061 126.878 45.1885C127.108 44.6764 127.332 44.1707 127.55 43.6714C127.652 43.4537 127.787 43.4473 127.953 43.6522C127.876 43.8314 127.799 44.017 127.723 44.2091C127.607 44.5291 127.467 44.83 127.3 45.1116C127.147 45.3933 126.916 45.6301 126.609 45.8222ZM129.893 37.6799C129.893 37.6415 129.893 37.6095 129.893 37.5839C129.905 37.4815 129.918 37.3854 129.931 37.2958C129.931 37.283 129.937 37.2766 129.95 37.2766C129.976 37.2638 129.995 37.2574 130.008 37.2574C130.033 37.2574 130.053 37.251 130.065 37.2382C130.078 37.251 130.085 37.2638 130.085 37.2766C130.085 37.2766 130.085 37.283 130.085 37.2958C130.097 37.3086 130.104 37.3214 130.104 37.3342C130.078 37.4239 130.053 37.5199 130.027 37.6223C130.027 37.6479 130.021 37.6735 130.008 37.6991C129.969 37.6863 129.931 37.6799 129.893 37.6799ZM131.717 39.581C131.704 39.5938 131.691 39.6066 131.679 39.6195C131.666 39.6195 131.659 39.6259 131.659 39.6387C131.647 39.6259 131.64 39.6195 131.64 39.6195C131.627 39.6066 131.621 39.5938 131.621 39.581C131.621 39.5682 131.621 39.5618 131.621 39.5618C131.621 39.549 131.621 39.5426 131.621 39.5426C131.634 39.5298 131.647 39.517 131.659 39.5042C131.672 39.5042 131.679 39.4978 131.679 39.485C131.691 39.5106 131.698 39.5298 131.698 39.5426C131.711 39.5554 131.717 39.5682 131.717 39.581ZM127.857 46.4751C127.87 46.4879 127.876 46.5071 127.876 46.5327C127.902 46.5711 127.915 46.6095 127.915 46.6479C127.915 46.6479 127.908 46.6543 127.895 46.6671C127.895 46.6799 127.889 46.6927 127.876 46.7055C127.863 46.7055 127.851 46.7055 127.838 46.7055C127.825 46.7055 127.812 46.6991 127.799 46.6863C127.799 46.6735 127.793 46.6671 127.78 46.6671C127.78 46.6543 127.78 46.6415 127.78 46.6287C127.793 46.5903 127.812 46.5583 127.838 46.5327C127.851 46.5071 127.857 46.4879 127.857 46.4751ZM121.001 33.3591C121.001 33.4487 120.995 33.5448 120.982 33.6472C120.969 33.7496 120.963 33.852 120.963 33.9544C120.937 33.9544 120.918 33.9608 120.905 33.9736C120.867 33.9864 120.829 33.9928 120.79 33.9928C120.752 33.98 120.72 33.9672 120.694 33.9544C120.681 33.9416 120.669 33.9352 120.656 33.9352C120.656 33.9352 120.656 33.9288 120.656 33.916C120.669 33.9032 120.675 33.8968 120.675 33.8968C120.688 33.884 120.694 33.8776 120.694 33.8776C120.707 33.8776 120.72 33.8776 120.733 33.8776C120.758 33.8776 120.777 33.8776 120.79 33.8776C120.829 33.8904 120.867 33.9096 120.905 33.9352C120.918 33.948 120.937 33.9544 120.963 33.9544C120.963 33.916 120.969 33.8712 120.982 33.82C120.995 33.6664 121.008 33.5192 121.021 33.3783C121.085 33.2759 121.142 33.1735 121.193 33.0711C121.36 32.7766 121.526 32.4886 121.693 32.2069C121.757 32.1173 121.821 32.0277 121.885 31.9381C122 31.81 122.09 31.6756 122.154 31.5348C122.218 31.3684 122.256 31.1891 122.269 30.9971C122.269 30.9459 122.275 30.8883 122.288 30.8243C122.314 30.7218 122.358 30.6258 122.422 30.5362C122.461 30.4722 122.493 30.4018 122.519 30.325C122.557 30.2482 122.563 30.1649 122.538 30.0753C122.461 30.1009 122.378 30.1265 122.288 30.1521C122.198 30.1778 122.122 30.197 122.058 30.2098C121.994 30.2226 121.949 30.2162 121.923 30.1906C121.757 30.0369 121.622 29.9921 121.52 30.0561C121.418 30.1201 121.334 30.2162 121.27 30.3442C120.745 31.2147 120.253 32.0981 119.792 32.9943C119.612 33.3399 119.35 33.5704 119.004 33.6856C119.043 33.788 119.075 33.8968 119.1 34.012C119.113 34.0633 119.126 34.1081 119.139 34.1465C119.126 34.1465 119.113 34.1465 119.1 34.1465C119.075 34.1593 119.049 34.1657 119.023 34.1657C119.023 34.0889 119.023 34.0184 119.023 33.9544C119.011 33.8648 119.004 33.7752 119.004 33.6856C119.017 33.6728 119.036 33.66 119.062 33.6472C119.087 33.6472 119.107 33.6408 119.12 33.628C119.145 33.6152 119.164 33.6024 119.177 33.5896C119.523 32.6806 119.868 31.7652 120.214 30.8435C120.253 30.7154 120.246 30.6066 120.195 30.517C120.156 30.4146 120.099 30.3186 120.022 30.229C119.984 30.229 119.952 30.2354 119.926 30.2482C119.849 30.261 119.772 30.2738 119.696 30.2866C119.696 30.2866 119.689 30.2866 119.676 30.2866C119.676 30.2738 119.676 30.261 119.676 30.2482C119.664 30.2354 119.657 30.229 119.657 30.229C119.683 30.1393 119.708 30.0497 119.734 29.9601C119.862 29.6016 120.009 29.1728 120.176 28.6735C120.073 28.7375 119.99 28.7887 119.926 28.8271C119.824 28.8783 119.753 28.9295 119.715 28.9807C119.612 29.1088 119.51 29.2304 119.408 29.3456C118.78 29.9857 118.287 30.7218 117.929 31.554C117.916 31.5924 117.89 31.6308 117.852 31.6692C117.826 31.6948 117.788 31.7076 117.737 31.7076C117.698 31.7076 117.647 31.6756 117.583 31.6116C117.647 31.3812 117.737 31.1571 117.852 30.9395C118.07 30.581 118.179 30.1778 118.179 29.7297C117.794 30.2802 117.449 30.8435 117.142 31.4196C115.861 33.852 114.984 36.4253 114.511 39.1394C114.242 40.5092 113.999 41.8855 113.781 43.2681C113.781 43.2937 113.775 43.3193 113.762 43.3449C113.647 43.9082 113.608 44.4715 113.647 45.0348C113.736 45.7646 113.858 46.5007 114.011 47.2432C114.063 47.4993 114.107 47.7553 114.146 48.0114C114.197 48.2546 114.261 48.4914 114.338 48.7219C114.351 48.7475 114.363 48.7731 114.376 48.7987C114.415 48.9523 114.479 49.0996 114.568 49.2404C114.671 49.3812 114.824 49.5092 115.029 49.6245C115.055 49.586 115.08 49.5412 115.106 49.49C115.157 49.4004 115.208 49.3044 115.26 49.202C115.285 49.2148 115.304 49.234 115.317 49.2596C115.445 49.3748 115.56 49.4772 115.663 49.5668C115.855 49.49 116.034 49.4196 116.201 49.3556C116.252 49.4708 116.297 49.5732 116.335 49.6629C116.412 49.8933 116.501 50.1045 116.604 50.2966C116.642 50.3478 116.7 50.3926 116.777 50.431C116.866 50.4694 116.95 50.4886 117.026 50.4886C117.078 50.4886 117.129 50.463 117.18 50.4118C117.244 50.3478 117.282 50.2838 117.295 50.2198C117.372 49.8741 117.5 49.554 117.679 49.2596C117.73 49.17 117.775 49.0868 117.814 49.0099C117.878 48.9075 117.922 48.7987 117.948 48.6835C117.974 48.5683 117.967 48.4466 117.929 48.3186C117.737 47.7297 117.66 47.1408 117.698 46.5519C117.737 45.963 117.814 45.3805 117.929 44.8044C117.942 44.7404 117.954 44.67 117.967 44.5931C118.108 43.8122 118.313 43.0377 118.582 42.2695C118.697 41.9367 118.799 41.6102 118.889 41.2902C118.927 41.1749 118.959 41.0597 118.985 40.9445C119.075 40.6244 119.177 40.3044 119.292 39.9843C119.395 39.7539 119.504 39.5234 119.619 39.293C119.977 38.6785 120.188 38.0064 120.253 37.2766C120.278 37.0718 120.361 36.867 120.502 36.6621C120.528 36.6109 120.553 36.5597 120.579 36.5085C120.835 35.9836 121.046 35.4331 121.213 34.857C121.341 34.4217 121.539 34.0184 121.808 33.6472C121.974 33.4423 122.083 33.2183 122.134 32.9751C122.186 32.7318 122.218 32.4438 122.23 32.1109C122.128 32.2389 122.038 32.3605 121.962 32.4758C121.744 32.7702 121.546 33.0263 121.366 33.2439C121.341 33.2695 121.302 33.2887 121.251 33.3015C121.213 33.3143 121.168 33.3207 121.117 33.3207C121.078 33.3335 121.04 33.3463 121.001 33.3591ZM117.199 32.6678C117.199 32.719 117.199 32.7702 117.199 32.8214C117.199 32.8086 117.199 32.7894 117.199 32.7638C117.186 32.7382 117.18 32.7126 117.18 32.687C117.27 32.5846 117.366 32.4758 117.468 32.3605C117.468 32.3605 117.474 32.3541 117.487 32.3413C117.5 32.3029 117.519 32.2645 117.545 32.2261C117.545 32.2133 117.551 32.2005 117.564 32.1877C117.564 32.2005 117.564 32.2069 117.564 32.2069C117.564 32.2197 117.558 32.2325 117.545 32.2453C117.545 32.2453 117.545 32.2517 117.545 32.2645C117.532 32.2773 117.513 32.2901 117.487 32.3029C117.474 32.3029 117.468 32.3029 117.468 32.3029C117.417 32.3797 117.359 32.4566 117.295 32.5334C117.27 32.5846 117.238 32.6294 117.199 32.6678ZM141.879 28.2894C141.866 28.3534 141.859 28.4046 141.859 28.443C141.859 28.5327 141.847 28.6031 141.821 28.6543C141.693 28.8719 141.571 29.0832 141.456 29.288C141.226 29.6721 141.015 30.0625 140.822 30.4594C140.464 31.2275 140.131 32.0085 139.824 32.8022C139.811 32.8278 139.805 32.8534 139.805 32.879C139.753 33.0071 139.702 33.1351 139.651 33.2631C139.51 33.7368 139.293 34.1721 138.998 34.5689C138.934 34.6458 138.883 34.7482 138.845 34.8762C138.832 34.9274 138.813 34.985 138.787 35.049C138.697 35.2795 138.608 35.5099 138.518 35.7404C138.262 36.3549 138.006 36.963 137.75 37.5647C137.43 38.2176 137.174 38.9025 136.982 39.6195C136.854 40.1315 136.7 40.6308 136.521 41.1173C136.29 41.6678 136.156 42.2439 136.118 42.8456C136.105 42.9865 136.073 43.1209 136.022 43.2489C135.996 43.3129 135.97 43.3769 135.945 43.4409C135.932 43.5178 135.913 43.5946 135.887 43.6714C135.823 43.825 135.778 43.9786 135.753 44.1323C135.689 44.4779 135.644 44.8236 135.618 45.1693C135.58 45.7197 135.484 46.2638 135.33 46.8015C135.279 47.0448 135.279 47.3072 135.33 47.5889C135.343 47.6401 135.349 47.6913 135.349 47.7425C135.375 47.9217 135.414 48.0946 135.465 48.261C135.503 48.4274 135.535 48.5939 135.561 48.7603C135.599 49.0676 135.657 49.3684 135.734 49.6629C135.785 49.9061 135.83 50.1493 135.868 50.3926C135.983 50.9047 136.169 51.3976 136.425 51.8713C136.476 51.9993 136.534 52.1209 136.598 52.2361C136.777 52.6074 136.969 52.9723 137.174 53.3307C137.212 53.3947 137.251 53.4523 137.289 53.5036C137.494 53.8108 137.75 54.0669 138.057 54.2717C138.172 54.3613 138.288 54.4573 138.403 54.5597C139.094 55.0846 139.856 55.4495 140.688 55.6543C140.765 55.6927 140.848 55.7248 140.938 55.7504C141.911 56.0064 142.896 56.0768 143.895 55.9616C143.946 55.9488 143.997 55.9424 144.049 55.9424C144.548 55.904 145.034 55.8016 145.508 55.6351C145.534 55.6223 145.559 55.6159 145.585 55.6159C146.263 55.4111 146.878 55.0846 147.428 54.6366C147.595 54.5085 147.761 54.3869 147.928 54.2717C148.491 53.9004 148.965 53.4395 149.349 52.889C149.566 52.5306 149.835 52.2041 150.155 51.9097C150.719 51.3464 151.071 50.719 151.212 50.0277C151.365 49.3236 151.442 48.6003 151.442 47.8577C151.442 47.7681 151.423 47.6785 151.384 47.5889C151.359 47.4865 151.32 47.4225 151.269 47.3969C151.141 47.3584 151.032 47.3072 150.943 47.2432C150.866 47.1664 150.795 47.0832 150.731 46.9936C150.655 46.904 150.571 46.8271 150.482 46.7631C150.405 46.6863 150.309 46.6415 150.194 46.6287C150.194 46.5263 150.194 46.4303 150.194 46.3407C150.194 46.1614 150.187 45.9886 150.175 45.8222C150.162 45.6685 150.091 45.5597 149.963 45.4957C149.848 45.4317 149.714 45.4381 149.56 45.5149C149.342 45.6301 149.125 45.7518 148.907 45.8798C148.792 45.9438 148.683 46.0078 148.581 46.0718C148.581 46.123 148.574 46.1678 148.561 46.2062C148.561 46.3087 148.549 46.4047 148.523 46.4943C148.369 47.2752 147.979 47.9153 147.352 48.4146C147.262 48.4786 147.172 48.5491 147.083 48.6259C146.468 49.074 145.841 49.49 145.201 49.8741C144.484 50.335 143.703 50.623 142.858 50.7383C142.051 50.7895 141.488 50.463 141.168 49.7589C141.015 49.4388 140.899 49.1124 140.822 48.7795C140.707 48.229 140.63 47.6721 140.592 47.1088C140.566 46.1358 140.63 45.1757 140.784 44.2283C140.938 43.2809 141.13 42.3399 141.36 41.4054C141.373 41.3414 141.405 41.2773 141.456 41.2133C141.482 41.1749 141.501 41.1365 141.514 41.0981C141.578 41.1109 141.642 41.1237 141.706 41.1365C141.847 41.1749 141.981 41.2069 142.109 41.2325C143.12 41.527 144.125 41.5206 145.124 41.2133C145.931 40.9445 146.731 40.6564 147.524 40.3492C147.576 40.3236 147.627 40.3044 147.678 40.2916C147.883 40.2148 148.056 40.0995 148.197 39.9459C148.657 39.3826 149.093 38.8001 149.502 38.1984C149.554 38.1216 149.586 38.0384 149.598 37.9488C149.624 37.8591 149.63 37.7759 149.618 37.6991C149.566 37.3918 149.496 37.091 149.406 36.7965C149.381 36.6685 149.349 36.5341 149.31 36.3933C149.349 36.3421 149.394 36.278 149.445 36.2012C149.547 36.0476 149.65 35.8876 149.752 35.7211C149.79 35.6187 149.79 35.5163 149.752 35.4139C149.714 35.3115 149.643 35.2411 149.541 35.2027C149.31 35.1386 149.08 35.081 148.85 35.0298C148.76 35.0042 148.664 34.9786 148.561 34.953C147.896 35.7468 147.064 36.15 146.065 36.1628C145.899 36.1756 145.726 36.1884 145.547 36.2012C145.06 36.2652 144.574 36.2396 144.087 36.1244C144.01 36.1116 143.927 36.118 143.837 36.1436C143.786 36.1692 143.735 36.182 143.684 36.182C143.581 36.182 143.466 36.182 143.338 36.182C143.287 36.1692 143.223 36.1628 143.146 36.1628C143.236 35.9196 143.325 35.6827 143.415 35.4523C143.62 34.889 143.818 34.3449 144.01 33.82C144.061 33.6792 144.119 33.5384 144.183 33.3975C144.234 33.2567 144.292 33.1095 144.356 32.9559C144.471 32.6358 144.574 32.3157 144.663 31.9957C144.881 31.1763 145.22 30.4018 145.681 29.6721C145.732 29.5952 145.783 29.5248 145.835 29.4608C145.988 29.2816 146.103 29.096 146.18 28.9039C146.347 28.5327 146.616 28.2638 146.987 28.0974C147.102 28.1358 147.217 28.1742 147.332 28.2126C147.576 28.3022 147.819 28.3918 148.062 28.4814C149.01 28.8015 149.976 28.9103 150.962 28.8079C152.255 28.6415 153.51 28.3406 154.726 27.9053C155.263 27.7133 155.724 27.4189 156.108 27.022C156.505 26.6123 156.857 26.1706 157.165 25.6969C157.19 25.6585 157.209 25.6073 157.222 25.5433C157.235 25.4793 157.235 25.4345 157.222 25.4089C157.158 25.3193 157.12 25.2233 157.107 25.1208C157.094 25.0184 157.094 24.916 157.107 24.8136C157.107 24.6984 157.101 24.5895 157.088 24.4871C157.075 24.3719 157.017 24.2695 156.915 24.1799C156.979 24.1031 157.043 24.039 157.107 23.9878C157.235 23.8598 157.344 23.7318 157.433 23.6038C157.485 23.4885 157.517 23.3605 157.529 23.2197C157.542 23.1557 157.555 23.0917 157.568 23.0277C157.222 22.9252 156.902 22.8228 156.608 22.7204C156.48 22.682 156.352 22.6436 156.224 22.6052C155.712 23.1685 155.103 23.5013 154.399 23.6038C153.503 23.6934 152.607 23.7254 151.711 23.6998C151.532 23.687 151.352 23.6678 151.173 23.6422C150.853 23.5782 150.527 23.5782 150.194 23.6422C150.13 23.655 150.059 23.655 149.983 23.6422C149.919 23.6166 149.855 23.591 149.79 23.5654C149.752 23.5526 149.714 23.5462 149.675 23.5462C149.662 23.5334 149.65 23.5206 149.637 23.5077C149.637 23.4821 149.637 23.4565 149.637 23.4309C149.624 23.4053 149.618 23.3861 149.618 23.3733C149.63 23.3349 149.65 23.3157 149.675 23.3157C149.701 23.3029 149.733 23.2965 149.771 23.2965C149.81 23.2965 149.842 23.2901 149.867 23.2773C149.906 23.2645 149.931 23.2453 149.944 23.2197C149.97 23.1813 149.976 23.1301 149.963 23.0661C149.887 23.0405 149.81 23.0213 149.733 23.0085C149.554 22.9701 149.374 22.9252 149.195 22.874C148.171 22.5924 147.134 22.5156 146.084 22.6436C144.586 22.8612 143.14 23.2453 141.744 23.7958C141.603 23.847 141.469 23.8918 141.341 23.9302C140.778 24.1479 140.291 24.4679 139.882 24.8904C139.485 25.3129 139.113 25.761 138.768 26.2346C138.755 26.2474 138.742 26.2602 138.729 26.273C138.691 26.3243 138.659 26.3947 138.633 26.4843C138.62 26.5611 138.627 26.6187 138.652 26.6571C138.755 26.8235 138.8 27.0028 138.787 27.1948C138.787 27.3228 138.806 27.4445 138.845 27.5597C138.883 27.6749 138.966 27.7709 139.094 27.8477C139.017 27.9245 138.941 28.0014 138.864 28.0782C138.71 28.2446 138.569 28.411 138.441 28.5775C138.39 28.6543 138.364 28.7375 138.364 28.8271C138.377 28.9167 138.409 28.9935 138.46 29.0576C138.512 29.1216 138.576 29.1536 138.652 29.1536C138.883 29.128 139.107 29.16 139.325 29.2496C139.504 29.3136 139.696 29.352 139.901 29.3648C140.413 28.8271 141.072 28.4686 141.879 28.2894ZM141.859 40.426C141.885 40.4388 141.911 40.4516 141.936 40.4644C141.975 40.49 142.019 40.5156 142.071 40.5412C142.045 40.554 142.019 40.5732 141.994 40.5988C141.968 40.6244 141.943 40.6436 141.917 40.6564C141.904 40.6692 141.885 40.6756 141.859 40.6756C141.834 40.6756 141.808 40.6628 141.783 40.6372C141.77 40.6116 141.751 40.586 141.725 40.5604C141.712 40.5348 141.699 40.5156 141.687 40.5028C141.699 40.49 141.719 40.4772 141.744 40.4644C141.783 40.4516 141.821 40.4388 141.859 40.426ZM141.802 55.0782C141.776 55.0782 141.757 55.0782 141.744 55.0782C141.667 55.0782 141.591 55.0718 141.514 55.059C141.514 55.059 141.514 55.0526 141.514 55.0398C141.514 55.027 141.514 55.0142 141.514 55.0014C141.514 54.9886 141.514 54.9694 141.514 54.9438C141.527 54.9566 141.546 54.963 141.571 54.963C141.648 54.9758 141.719 54.9886 141.783 55.0014C141.783 55.0014 141.783 55.0078 141.783 55.0206C141.783 55.0206 141.789 55.027 141.802 55.0398C141.802 55.0526 141.802 55.0654 141.802 55.0782ZM142.32 51.4296C142.308 51.4424 142.295 51.4552 142.282 51.468C142.269 51.4424 142.256 51.4232 142.244 51.4104C142.244 51.4104 142.25 51.4104 142.263 51.4104C142.276 51.4104 142.295 51.4168 142.32 51.4296ZM149.061 23.2773L149.042 23.3541L148.984 23.3157L149.061 23.2773ZM148.619 27.8861V27.9437L148.542 27.9053L148.619 27.8861Z" fill="white"/>
</svg>
