<svg width="159" height="77" viewBox="0 0 159 77" fill="none" xmlns="http://www.w3.org/2000/svg">
<path d="M27.0753 37.948C27.5604 35.0392 27.675 34.95 29.9225 30.2004L33.0729 24.0071C29.7746 24.0071 26.4763 24.157 25.8766 24.7566C24.6772 25.9558 23.2392 29.3176 22.6042 31.5235C22.2457 32.7694 21.3089 35.4603 21.079 36.7488C21.079 36.7488 25.2769 49.9402 33.6726 52.3387C27.0753 46.9422 26.4756 41.5457 27.0753 37.948Z" fill="#5837D0"/>
<path d="M40.7539 39.0972C40.6812 38.3024 40.4747 37.6008 39.8923 37.0185C39.3826 36.5089 32.0203 36.5775 31.2873 36.6101C31.2873 36.6101 31.2953 36.6101 31.2873 38.409C31.2733 41.5149 37.2003 39.5495 37.2703 40.3157C37.4336 42.0886 37.2843 42.6062 36.6846 44.4051C36.0849 46.2039 34.8855 46.8035 33.0864 46.8035C29.4882 46.8035 27.0894 42.6062 28.2888 36.6101C29.4882 30.614 33.8061 24.0183 33.0864 24.0183C30.0879 24.0183 28.3555 24.0183 27.1561 25.8171C25.4603 28.3642 24.6127 31.1423 23.5865 34.0405C23.0457 35.5847 22.7144 37.1944 22.6017 38.8267C22.4751 40.5416 22.4884 42.3044 22.8809 43.9733C23.2341 45.4724 23.979 46.9827 24.76 48.3132C25.6042 49.7522 26.8169 51.098 28.2988 51.8988C29.0318 52.2986 29.8481 52.6264 30.677 52.7649C31.7811 52.9502 33.8274 52.9648 34.9335 52.7496C36.7492 52.3992 38.2938 51.1194 39.2473 49.577C40.2122 48.0154 40.5287 46.1992 40.7219 44.4077C40.9087 42.643 40.9194 40.864 40.7539 39.0972Z" fill="#5837D0" fill-opacity="0.58"/>
<path d="M20.4788 37.3484L15.8411 25.9718C15.4418 25.1859 14.7558 24.5834 13.9248 24.2889C13.1518 24.0257 12.109 24.0544 11.3807 24.4541L11.3327 24.4814L11.3168 24.4861C10.7037 24.7033 10.1094 25.0917 9.73022 25.6726C9.4379 26.0303 9.22956 26.449 9.12053 26.8978C7.81852 32.3023 6.73018 37.7608 5.85551 43.2732C5.85218 43.2965 5.84818 43.3205 5.84485 43.3445H11.8118C12.1243 41.3051 12.4608 39.2845 12.8227 37.4397C14.104 40.5083 18.681 52.9383 22.8789 52.9383H34.2732C25.8761 52.3386 20.4788 37.3484 20.4788 37.3484Z" fill="#5837D0"/>
<path d="M11.4548 45.7427C11.5408 45.1431 11.6294 44.5435 11.7213 43.9438H5.75567C5.67838 44.5002 5.60308 45.1178 5.52979 45.7427H11.4548Z" fill="#5837D0"/>
<path d="M11.1165 48.1414C11.1985 47.5497 11.2824 46.9488 11.369 46.3425H5.46268C5.39005 46.9695 5.31875 47.5864 5.25012 48.1414H11.1165Z" fill="#5837D0"/>
<path d="M5.16919 48.741C5.04768 49.1542 5.02983 49.591 5.11722 50.0128C5.13206 50.4304 5.25068 50.8377 5.46238 51.198C5.81686 51.8596 6.51118 52.4905 7.20749 52.6637C7.95645 52.8496 8.79403 52.809 9.46036 52.342C10.0547 51.9236 10.6937 51.236 10.8023 50.4365C10.8776 49.8842 10.9549 49.3179 11.0342 48.741H5.16919Z" fill="#5837D0"/>
<path d="M32.173 28.3542L31.2734 30.1531C32.5128 30.253 34.7897 30.4962 36.6754 29.5535C37.2211 29.281 37.7295 28.8526 38.1839 28.3542H32.173Z" fill="#5837D0"/>
<path d="M40.0536 25.3747C40.3474 24.6639 40.4414 24.1569 40.2734 24.1569C39.7144 24.1569 37.3343 24.1748 34.2718 24.1569L33.6628 25.3747H40.0536Z" fill="#5837D0"/>
<path d="M33.3721 25.9557L32.4726 27.7545H38.6815C39.1065 27.1912 39.4773 26.5889 39.7889 25.9557H33.3721Z" fill="#5837D0"/>
<rect x="0.6651" y="15.212" width="45.8592" height="46.5757" rx="10.0513" fill="#5837D0"/>
<path d="M27.0753 37.948C27.5604 35.0392 27.675 34.95 29.9225 30.2004L33.0729 24.0071C29.7746 24.0071 26.4763 24.157 25.8766 24.7566C24.6772 25.9558 23.2392 29.3176 22.6042 31.5235C22.2457 32.7694 21.3089 35.4603 21.079 36.7488C21.079 36.7488 25.2769 49.9402 33.6726 52.3387C27.0753 46.9422 26.4756 41.5457 27.0753 37.948Z" fill="white"/>
<path d="M40.7539 39.0972C40.6812 38.3024 40.4747 37.6008 39.8923 37.0185C39.3826 36.5089 32.0203 36.5775 31.2873 36.6101C31.2873 36.6101 31.2953 36.6101 31.2873 38.409C31.2733 41.5149 37.2003 39.5495 37.2703 40.3157C37.4336 42.0886 37.2843 42.6062 36.6846 44.4051C36.0849 46.2039 34.8855 46.8035 33.0864 46.8035C29.4882 46.8035 27.0894 42.6062 28.2888 36.6101C29.4882 30.614 33.8061 24.0183 33.0864 24.0183C30.0879 24.0183 28.3555 24.0183 27.1561 25.8171C25.4603 28.3642 24.6127 31.1423 23.5865 34.0405C23.0457 35.5847 22.7144 37.1944 22.6017 38.8267C22.4751 40.5416 22.4884 42.3044 22.8809 43.9733C23.2341 45.4724 23.979 46.9827 24.76 48.3132C25.6042 49.7522 26.8169 51.098 28.2988 51.8988C29.0318 52.2986 29.8481 52.6264 30.677 52.7649C31.7811 52.9502 33.8274 52.9648 34.9335 52.7496C36.7492 52.3992 38.2938 51.1194 39.2473 49.577C40.2122 48.0154 40.5287 46.1992 40.7219 44.4077C40.9087 42.643 40.9194 40.864 40.7539 39.0972Z" fill="#FDFCFF" fill-opacity="0.58"/>
<path d="M20.4788 37.3484L15.8411 25.9718C15.4418 25.1859 14.7558 24.5834 13.9248 24.2889C13.1518 24.0257 12.109 24.0544 11.3807 24.4541L11.3327 24.4814L11.3168 24.4861C10.7037 24.7033 10.1094 25.0917 9.73022 25.6726C9.4379 26.0303 9.22956 26.449 9.12053 26.8978C7.81852 32.3023 6.73018 37.7608 5.85551 43.2732C5.85218 43.2965 5.84818 43.3205 5.84485 43.3445H11.8118C12.1243 41.3051 12.4608 39.2845 12.8227 37.4397C14.104 40.5083 18.681 52.9383 22.8789 52.9383H34.2732C25.8761 52.3386 20.4788 37.3484 20.4788 37.3484Z" fill="white"/>
<path d="M11.4548 45.7427C11.5408 45.1431 11.6294 44.5435 11.7213 43.9438H5.75567C5.67838 44.5002 5.60308 45.1178 5.52979 45.7427H11.4548Z" fill="white"/>
<path d="M11.1165 48.1414C11.1985 47.5497 11.2824 46.9488 11.369 46.3425H5.46268C5.39005 46.9695 5.31875 47.5864 5.25012 48.1414H11.1165Z" fill="white"/>
<path d="M5.16919 48.741C5.04768 49.1542 5.02983 49.591 5.11722 50.0128C5.13206 50.4304 5.25068 50.8377 5.46238 51.198C5.81686 51.8596 6.51118 52.4905 7.20749 52.6637C7.95645 52.8496 8.79403 52.809 9.46036 52.342C10.0547 51.9236 10.6937 51.236 10.8023 50.4365C10.8776 49.8842 10.9549 49.3179 11.0342 48.741H5.16919Z" fill="white"/>
<path d="M32.173 28.3542L31.2734 30.1531C32.5128 30.253 34.7897 30.4962 36.6754 29.5535C37.2211 29.281 37.7295 28.8526 38.1839 28.3542H32.173Z" fill="white"/>
<path d="M40.0536 25.3747C40.3474 24.6639 40.4414 24.1569 40.2734 24.1569C39.7144 24.1569 37.3343 24.1748 34.2718 24.1569L33.6628 25.3747H40.0536Z" fill="white"/>
<path d="M33.3721 25.9557L32.4726 27.7545H38.6815C39.1065 27.1912 39.4773 26.5889 39.7889 25.9557H33.3721Z" fill="white"/>
<line x1="54.098" y1="35.0449" x2="64.7831" y2="35.0449" stroke="#5837D0" stroke-width="6.91029"/>
<path d="M89.1599 31.4772L89.1791 31.3044C89.1919 31.0867 89.1983 30.7667 89.1983 30.3442V30.0945C89.1983 29.7745 89.1727 29.4288 89.1215 29.0576C89.0831 28.6863 88.9999 28.3726 88.8718 28.1166C88.7566 27.9245 88.603 27.8285 88.411 27.8285C88.3598 27.8285 88.2509 27.8541 88.0845 27.9053C87.9309 27.9437 87.6364 28.2446 87.2011 28.8079C86.7659 29.3584 86.2282 30.2354 85.5881 31.4388L85.5496 31.5156C85.2424 32.1173 84.9095 32.6934 84.5511 33.2439C83.6933 34.5753 82.8996 35.9452 82.1698 37.3534C82.1442 37.4047 82.1186 37.4495 82.093 37.4879V37.7567C82.157 37.7439 82.221 37.7375 82.2851 37.7375L82.7075 37.6991C83.5653 37.5583 84.4166 37.4111 85.2616 37.2574C86.1962 37.1038 87.1371 36.9502 88.0845 36.7965C88.3534 36.7581 88.5262 36.7069 88.603 36.6429C88.6926 36.5661 88.7502 36.3805 88.7758 36.086C88.7758 36.022 88.7886 35.8428 88.8142 35.5483C88.8526 35.2411 88.8846 34.8826 88.9103 34.4729C88.9487 34.0504 88.9871 33.628 89.0255 33.2055C89.0639 32.783 89.0959 32.4118 89.1215 32.0917C89.1471 31.7972 89.1599 31.5924 89.1599 31.4772ZM73.221 52.3321C73.2594 52.2425 73.2914 52.1529 73.317 52.0633C73.2914 52.0633 73.2594 52.0569 73.221 52.0441V52.3321ZM73.221 52.3321V52.3898C73.2082 52.4026 73.2018 52.4154 73.2018 52.4282V52.4474L73.2402 52.409C73.2402 52.3833 73.2338 52.3577 73.221 52.3321ZM73.2018 52.4474C73.0738 52.5754 72.9586 52.729 72.8562 52.9082C72.7793 53.0363 72.6897 53.1643 72.5873 53.2923C72.4977 53.4075 72.3633 53.51 72.184 53.5996C72.184 52.921 72.2673 52.2873 72.4337 51.6984C72.4337 51.66 72.4401 51.6216 72.4529 51.5832C72.5297 51.2631 72.6193 50.9495 72.7217 50.6422C72.7729 50.4502 72.8306 50.2582 72.8946 50.0661C72.9458 49.8485 72.9906 49.6309 73.029 49.4132V49.3556C73.0418 49.2916 73.0482 49.2276 73.0482 49.1636C73.0482 49.0355 73.0674 48.9267 73.1058 48.8371C73.2722 48.5043 73.3939 48.1586 73.4707 47.8001C73.5347 47.4033 73.6691 47.032 73.8739 46.6863C73.938 46.5711 73.9892 46.4431 74.0276 46.3023C74.194 45.5469 74.3924 44.8044 74.6229 44.0747C74.6485 43.9978 74.6613 43.9338 74.6613 43.8826C74.6613 43.6778 74.5269 43.5434 74.258 43.4793H74.2004C74.1748 43.4793 74.1556 43.4729 74.1428 43.4601C73.6179 43.2425 73.0738 43.0761 72.5105 42.9609L71.7808 42.7688H71.7424C71.6271 42.7432 71.5119 42.692 71.3967 42.6152C71.2943 42.5512 71.2431 42.4232 71.2431 42.2311V42.1735C71.3583 42.0967 71.4735 42.0519 71.5887 42.0391L71.7808 42.0199L71.9728 42.0391C72.088 42.0391 72.2032 42.0327 72.3185 42.0199C72.5489 41.9943 72.7986 41.9687 73.0674 41.9431C73.1826 41.9303 73.3106 41.9175 73.4515 41.9047C73.3747 41.8022 73.3106 41.7126 73.2594 41.6358C73.1698 41.5206 73.0866 41.4054 73.0098 41.2902C73.125 41.2133 73.2338 41.1365 73.3362 41.0597C73.3875 41.0213 73.4323 40.9829 73.4707 40.9445C73.3811 40.8677 73.2786 40.7845 73.1634 40.6948C73.0994 40.6308 73.029 40.5668 72.9522 40.5028C73.0418 40.4516 73.125 40.4004 73.2018 40.3492C73.3555 40.2468 73.5027 40.1635 73.6435 40.0995C73.7843 40.0355 73.9316 39.9715 74.0852 39.9075C74.5717 39.6771 75.071 39.4978 75.5831 39.3698C76.172 39.2418 76.5752 38.9089 76.7929 38.3712C78.1499 35.4523 79.6094 32.5846 81.1713 29.7681C81.8114 28.6031 82.5091 27.4701 83.2644 26.3691C83.8661 25.5497 84.5127 24.7688 85.204 24.0262C85.5496 23.6806 85.9273 23.3733 86.337 23.1045C87.1563 22.5796 87.9821 22.3171 88.8142 22.3171C89.0703 22.3171 89.5376 22.3811 90.2161 22.5092C90.9074 22.6372 91.5987 23.0597 92.2901 23.7766C92.9686 24.5191 93.4615 25.3577 93.7687 26.2923C94.0888 27.2652 94.2808 28.2638 94.3448 29.288C94.396 30.0177 94.4216 30.7475 94.4216 31.4772C94.4216 32.4886 94.3704 33.5064 94.268 34.5305C94.2552 34.6073 94.2424 34.6778 94.2296 34.7418C94.1784 35.0874 94.1528 35.4395 94.1528 35.798C94.1528 35.99 94.1592 36.1884 94.172 36.3933C94.4537 36.5213 94.7417 36.5853 95.0362 36.5853C95.113 36.5853 95.1898 36.5789 95.2666 36.5661H95.4394C95.7467 36.5661 96.0603 36.6173 96.3804 36.7197C96.0475 36.7837 95.7339 36.8285 95.4394 36.8542C94.9785 36.8926 94.5433 36.9822 94.1336 37.123C95.3626 37.2126 96.5596 37.4239 97.7246 37.7567C97.7374 37.7695 97.7502 37.7951 97.763 37.8335C97.763 37.8463 97.7758 37.8719 97.8015 37.9103C97.5582 38.0256 97.2958 38.0832 97.0141 38.0832H96.9373C96.6556 38.0832 96.3804 38.1536 96.1115 38.2944C96.2012 38.3456 96.2716 38.3968 96.3228 38.448C96.374 38.4864 96.4252 38.5185 96.4764 38.5441C96.0923 38.8897 95.6507 39.0626 95.1514 39.0626H95.0938C94.8121 39.0626 94.5305 39.0882 94.2488 39.1394C94.1976 39.165 94.14 39.2226 94.076 39.3122C94.0376 39.3762 93.9928 39.4402 93.9416 39.5042C94.364 39.5298 94.7737 39.5554 95.1706 39.581C95.8747 39.6323 96.5532 39.6771 97.2061 39.7155C97.2958 39.7923 97.3406 39.8627 97.3406 39.9267V39.9843C97.3406 40.0227 97.3214 40.0739 97.283 40.1379L97.2446 40.2148C97.2958 40.2532 97.3406 40.2916 97.379 40.33C97.507 40.4324 97.6414 40.5412 97.7822 40.6564C97.603 40.6948 97.4366 40.7333 97.283 40.7717C96.8477 40.8741 96.4252 40.9637 96.0155 41.0405C95.9643 41.0533 95.9067 41.0597 95.8427 41.0597C95.7915 41.0597 95.7339 41.0533 95.6699 41.0405C95.6187 41.0277 95.5675 41.0213 95.5162 41.0213C94.9657 40.9701 94.3448 40.9125 93.6535 40.8485C93.6023 40.8485 93.5447 40.8421 93.4807 40.8293C93.916 41.0981 94.3448 41.2389 94.7673 41.2517C95.113 41.2773 95.4266 41.3606 95.7083 41.5014L94.5177 41.655C94.1336 41.7062 93.7367 41.7574 93.327 41.8086C93.2502 42.0391 93.1606 42.2759 93.0582 42.5192C92.7765 43.1465 92.6101 43.825 92.5589 44.5547C92.5461 44.7212 92.5077 44.8876 92.4437 45.054C92.0468 45.9118 91.7524 46.8015 91.5603 47.7233C91.4195 48.3506 91.2403 48.9779 91.0226 49.6052L90.7538 50.4502C90.6642 50.3862 90.581 50.3286 90.5041 50.2774C90.2609 50.5078 90.0881 50.7895 89.9856 51.1223C89.896 51.4936 89.8 51.8585 89.6976 52.2169C89.4544 52.9467 89.2815 53.702 89.1791 54.4829C89.1535 54.6238 89.0831 54.771 88.9679 54.9246C88.8526 55.0654 88.7246 55.1807 88.5838 55.2703C88.5582 55.2959 88.5262 55.3215 88.4878 55.3471C88.3726 55.4239 88.2701 55.5071 88.1805 55.5967C88.0909 55.6863 88.0205 55.7952 87.9693 55.9232C87.9181 56.0512 87.8349 56.1472 87.7196 56.2112C87.6428 56.2496 87.5596 56.2688 87.47 56.2688C87.3804 56.2688 87.3036 56.2624 87.2396 56.2496C87.1627 56.224 87.1115 56.1792 87.0859 56.1152C87.0603 56.0512 87.0475 55.9744 87.0475 55.8848V55.6735C87.0475 55.6095 87.0539 55.5583 87.0667 55.5199C87.0795 55.4815 87.0923 55.4431 87.1051 55.4047C87.1179 55.3535 87.1307 55.2895 87.1435 55.2127C87.1563 55.1358 87.1691 55.0206 87.1819 54.867C87.2075 54.7006 87.2332 54.4765 87.2588 54.1949H86.6058C86.593 54.1949 86.5802 54.1949 86.5674 54.1949C86.5674 54.1821 86.561 54.1629 86.5482 54.1373C86.5354 54.1117 86.529 54.0733 86.529 54.022C86.4522 54.0476 86.369 54.1117 86.2794 54.2141C86.241 54.2653 86.1898 54.3165 86.1258 54.3677C86.0745 54.4061 86.0233 54.4317 85.9721 54.4445L85.8953 54.2909C85.8441 54.1885 85.8057 54.0861 85.7801 53.9836V53.926C85.7545 53.6828 85.7417 53.4395 85.7417 53.1963C85.7417 53.0299 85.7481 52.8698 85.7609 52.7162C85.7993 52.3449 85.8185 51.9801 85.8185 51.6216V51.3528C85.8185 51.0711 85.8313 50.7959 85.8569 50.527C85.9337 49.9509 86.0617 49.3748 86.241 48.7987C86.2666 48.6963 86.2922 48.6003 86.3178 48.5107C86.4586 48.0882 86.529 47.6465 86.529 47.1856C86.5418 46.6991 86.6442 46.2254 86.8363 45.7646C87.1307 44.766 87.3228 43.729 87.4124 42.6536L87.4508 42.3079L87.2203 42.2311C87.0667 42.1543 86.9195 42.1159 86.7787 42.1159C85.8057 42.1415 84.8327 42.1863 83.8597 42.2503C83.13 42.3143 82.3939 42.3847 81.6513 42.4616C81.1777 42.5 80.6976 42.5448 80.2111 42.596C80.1087 42.596 79.9998 42.5896 79.8846 42.5768C79.8334 42.5768 79.7822 42.5704 79.731 42.5576C79.7054 42.596 79.6734 42.6344 79.635 42.6728C79.5838 42.724 79.5454 42.7816 79.5198 42.8456C79.3533 43.2681 79.1805 43.6842 79.0013 44.0939C78.694 44.7596 78.4316 45.4381 78.2139 46.1294C78.0475 46.7439 77.8235 47.3328 77.5418 47.8961C77.2858 48.4594 77.1065 49.0483 77.0041 49.6629L76.9657 49.7781L76.9273 50.0085C76.8889 50.2134 76.8377 50.4118 76.7737 50.6038C76.7097 50.7831 76.5816 50.9431 76.3896 51.0839C76.0951 51.9929 75.6215 52.7994 74.9685 53.5036C74.9045 53.5804 74.8597 53.6764 74.8341 53.7916C74.8213 53.8556 74.8021 53.9196 74.7765 53.9836C74.4052 54.803 74.034 55.6287 73.6627 56.4609C73.5731 56.6913 73.3811 56.8578 73.0866 56.9602C73.0354 56.8193 73.0098 56.6849 73.0098 56.5569C73.0098 56.5057 73.0098 56.4289 73.0098 56.3265C73.0226 56.224 73.061 56.096 73.125 55.9424C73.1634 55.8016 73.1954 55.6671 73.221 55.5391C73.2722 55.2575 73.3427 54.9822 73.4323 54.7134C73.4835 54.5469 73.5347 54.3869 73.5859 54.2333C73.6243 54.0797 73.6755 53.9196 73.7395 53.7532C73.8675 53.4587 73.9508 53.1067 73.9892 52.697C73.9124 52.7866 73.8355 52.8698 73.7587 52.9467C73.5155 53.2027 73.2466 53.4843 72.9522 53.7916C72.965 53.7148 72.9778 53.6444 72.9906 53.5804C73.0674 53.1451 73.1378 52.7674 73.2018 52.4474ZM103.405 23.4117C103.584 23.3989 103.744 23.4309 103.885 23.5077C104.026 23.5718 104.128 23.6998 104.192 23.8918C104.269 23.8918 104.346 23.8982 104.423 23.911C104.41 23.9238 104.403 23.9302 104.403 23.9302C104.391 23.943 104.378 23.9558 104.365 23.9686C104.327 23.943 104.295 23.9174 104.269 23.8918C104.256 23.879 104.237 23.8662 104.211 23.8534C104.173 23.8534 104.128 23.847 104.077 23.8342C103.936 23.8214 103.802 23.7894 103.674 23.7382C103.558 23.687 103.475 23.5718 103.424 23.3925C103.181 23.4949 102.925 23.6038 102.656 23.719C102.592 23.7574 102.528 23.7894 102.464 23.815C102.553 23.879 102.611 23.9558 102.637 24.0454C102.675 24.1223 102.694 24.2119 102.694 24.3143C102.707 24.4167 102.726 24.5127 102.752 24.6023C102.777 24.6792 102.842 24.7432 102.944 24.7944C103.187 24.8968 103.443 24.9736 103.712 25.0248C103.814 25.0504 103.923 25.0824 104.039 25.1208C104.103 25.1336 104.173 25.1528 104.25 25.1785C104.352 25.1913 104.448 25.2169 104.538 25.2553C104.576 25.2553 104.615 25.2553 104.653 25.2553C104.717 25.2681 104.775 25.2873 104.826 25.3129C104.877 25.3385 104.909 25.4025 104.922 25.5049C104.563 25.5433 104.192 25.5753 103.808 25.6009C103.68 25.6137 103.552 25.6265 103.424 25.6393C103.386 25.8314 103.341 26.0746 103.29 26.3691C103.264 26.3819 103.232 26.3883 103.194 26.3883C103.168 26.3883 103.136 26.3819 103.098 26.3691C103.021 26.3563 102.938 26.3627 102.848 26.3883C102.771 26.4011 102.701 26.4651 102.637 26.5803C102.713 26.6315 102.784 26.6827 102.848 26.7339C103.014 26.8492 103.174 26.958 103.328 27.0604C103.533 27.1756 103.744 27.278 103.962 27.3676C103.975 27.3676 103.987 27.3676 104 27.3676C104.064 27.3932 104.135 27.4125 104.211 27.4253C104.314 27.4253 104.41 27.4445 104.499 27.4829C104.589 27.5085 104.666 27.5917 104.73 27.7325C104.64 27.7325 104.557 27.7261 104.48 27.7133C104.327 27.7005 104.186 27.7069 104.058 27.7325C104.007 27.7325 103.955 27.7261 103.904 27.7133C103.827 27.6877 103.757 27.6877 103.693 27.7133C103.629 27.7261 103.571 27.7965 103.52 27.9245C103.674 27.963 103.827 28.0014 103.981 28.0398C104.339 28.1294 104.691 28.219 105.037 28.3086C105.408 28.411 105.562 28.6479 105.498 29.0191C105.485 29.0319 105.479 29.0447 105.479 29.0576C105.402 29.5952 105.312 30.1265 105.21 30.6514C104.839 32.2773 104.384 33.884 103.846 35.4715C103.808 35.5995 103.757 35.734 103.693 35.8748C103.642 35.99 103.597 36.1116 103.558 36.2396C103.469 36.5213 103.379 36.8029 103.29 37.0846C103.251 37.1998 103.219 37.3214 103.194 37.4495C103.117 37.6927 103.046 37.9359 102.982 38.1792C102.842 38.7425 102.656 39.2866 102.425 39.8115C102.31 40.0931 102.208 40.3748 102.118 40.6564C101.99 41.1429 101.779 41.591 101.484 42.0007C101.433 42.1031 101.408 42.2183 101.408 42.3463C101.408 42.3976 101.401 42.4488 101.388 42.5C101.376 42.628 101.363 42.756 101.35 42.884C101.35 43.1529 101.305 43.4025 101.216 43.633C100.87 44.4395 100.575 45.2653 100.332 46.1102C100.153 46.6863 99.961 47.2624 99.7561 47.8385C99.7177 47.9025 99.6857 47.973 99.6601 48.0498C99.5833 48.3442 99.4553 48.6195 99.2761 48.8755C99.1864 49.0419 99.1288 49.234 99.1032 49.4516C99.0904 49.49 99.084 49.5284 99.084 49.5668C99.02 49.8229 98.9688 50.0853 98.9304 50.3542C98.9176 50.4694 98.9048 50.5846 98.892 50.6998C98.9816 50.5462 99.0712 50.399 99.1608 50.2582C99.3785 49.8997 99.5961 49.5412 99.8138 49.1828C99.865 49.106 99.929 49.0227 100.006 48.9331C100.044 48.8819 100.083 48.8307 100.121 48.7795C100.147 48.8307 100.172 48.8755 100.198 48.9139C100.223 48.9651 100.236 49.0035 100.236 49.0291C100.044 49.4772 99.8394 49.9125 99.6217 50.335C99.5449 50.5014 99.4297 50.6294 99.2761 50.719C99.2505 50.7319 99.212 50.7383 99.1608 50.7383C99.1224 50.7255 99.0776 50.7126 99.0264 50.6998C98.9752 50.687 98.9304 50.6806 98.892 50.6806C98.8536 50.6806 98.8152 50.6806 98.7768 50.6806C98.1751 50.8215 97.5734 50.8087 96.9716 50.6422C96.7156 50.5654 96.4916 50.6294 96.2995 50.8343C96.3763 50.8983 96.4532 50.9559 96.53 51.0071C96.6452 51.0839 96.754 51.1607 96.8564 51.2375C96.8308 51.3272 96.8116 51.4104 96.7988 51.4872C96.786 51.5 96.7796 51.5192 96.7796 51.5448C96.7924 51.5192 96.8052 51.5 96.818 51.4872C96.8436 51.4488 96.8756 51.4168 96.914 51.3912C96.9268 51.3912 96.946 51.3912 96.9716 51.3912C96.9844 51.3912 97.0037 51.3976 97.0293 51.4104C97.0421 51.4104 97.0613 51.4104 97.0869 51.4104C97.0741 51.4232 97.0613 51.436 97.0485 51.4488C97.0229 51.4744 96.9972 51.4936 96.9716 51.5064C96.9332 51.5064 96.8948 51.5064 96.8564 51.5064C96.8308 51.5064 96.8052 51.5128 96.7796 51.5256C96.5492 51.308 96.3123 51.1991 96.0691 51.1991C95.813 51.1863 95.5506 51.2183 95.2817 51.2952C95.3073 51.3848 95.3329 51.468 95.3586 51.5448C95.4482 51.8136 95.525 52.0633 95.589 52.2937C95.9219 52.473 96.2739 52.601 96.6452 52.6778C96.978 52.7546 97.3045 52.8698 97.6246 53.0235C97.3429 53.1003 97.0613 53.1515 96.7796 53.1771C96.69 53.1899 96.6004 53.2027 96.5108 53.2155C96.4339 53.2283 96.3635 53.2475 96.2995 53.2731C96.2355 53.2987 96.1843 53.3371 96.1459 53.3883C96.0947 53.4779 96.0691 53.5804 96.0691 53.6956C96.0691 53.7596 96.0627 53.8172 96.0499 53.8684C96.0243 53.894 95.9923 53.9132 95.9539 53.926C95.9155 53.926 95.8706 53.926 95.8194 53.926C95.7426 53.926 95.6722 53.9452 95.6082 53.9836C95.5314 54.0092 95.4802 54.0925 95.4546 54.2333C95.6082 54.3101 95.7554 54.3997 95.8963 54.5021C96.1651 54.707 96.466 54.8542 96.7988 54.9438C97.0293 55.0078 97.2789 55.0718 97.5477 55.1358C97.6758 55.1743 97.823 55.2191 97.9894 55.2703C97.9766 55.2703 97.9638 55.2703 97.951 55.2703C97.3877 55.3087 96.8948 55.3407 96.4724 55.3663C97.2021 55.776 97.9638 55.9872 98.7576 56C99.6281 56.0128 100.46 55.904 101.254 55.6735C102.048 55.4303 102.822 55.1422 103.578 54.8094C103.718 54.7582 103.859 54.707 104 54.6558C104.474 54.4509 104.871 54.1565 105.191 53.7724C105.511 53.3755 105.799 52.9595 106.055 52.5242C106.08 52.4858 106.106 52.4538 106.132 52.4282C106.144 52.3898 106.157 52.3449 106.17 52.2937C106.196 52.2297 106.209 52.1785 106.209 52.1401C106.221 52.0889 106.215 52.0505 106.189 52.0249C106.112 51.9481 106.068 51.8585 106.055 51.756C106.042 51.6536 106.036 51.5512 106.036 51.4488C106.036 51.3336 106.023 51.2247 105.997 51.1223C105.972 51.0071 105.901 50.9047 105.786 50.8151C105.837 50.7511 105.895 50.687 105.959 50.623C106.074 50.495 106.177 50.367 106.266 50.239C106.343 50.1237 106.381 50.0085 106.381 49.8933C106.381 49.7781 106.324 49.6629 106.209 49.5476C106.093 49.522 105.978 49.5028 105.863 49.49C105.684 49.4644 105.511 49.426 105.344 49.3748C105.178 49.3236 105.031 49.234 104.903 49.106C104.903 49.0676 104.903 49.0291 104.903 48.9907C104.915 48.9139 104.935 48.8435 104.96 48.7795C105.882 46.2062 106.625 43.5818 107.188 40.9061C107.7 38.5889 108.231 36.278 108.782 33.9736C108.974 33.1415 109.07 32.3093 109.07 31.4772C109.07 31.0163 109.102 30.5618 109.166 30.1137C109.179 29.9473 109.191 29.7809 109.204 29.6144C109.217 29.3968 109.223 29.1792 109.223 28.9615C109.223 28.5903 109.249 28.219 109.3 27.8477C109.351 27.8221 109.403 27.7965 109.454 27.7709C109.556 27.7069 109.659 27.6557 109.761 27.6173C109.915 27.5661 110.068 27.5213 110.222 27.4829C110.44 27.4189 110.651 27.3484 110.856 27.2716C111.445 27.0156 111.938 26.6635 112.334 26.2154C112.731 25.7674 113.083 25.2745 113.391 24.7368C113.403 24.6984 113.416 24.66 113.429 24.6216C113.442 24.5831 113.448 24.5447 113.448 24.5063C113.461 24.4679 113.461 24.4423 113.448 24.4295C113.359 24.3527 113.301 24.2631 113.275 24.1607C113.263 24.0583 113.256 23.9494 113.256 23.8342C113.256 23.7318 113.243 23.6294 113.218 23.527C113.192 23.4117 113.128 23.3157 113.026 23.2389C113.09 23.1621 113.154 23.0853 113.218 23.0085C113.333 22.842 113.442 22.6884 113.544 22.5476C113.621 22.4196 113.634 22.2979 113.583 22.1827C113.544 22.0675 113.461 21.9907 113.333 21.9523C113.09 21.9011 112.84 21.8499 112.584 21.7986C112.469 21.7858 112.354 21.7666 112.238 21.741C111.713 22.3683 111.093 22.7524 110.376 22.8932C110.132 22.9188 109.889 22.9573 109.646 23.0085C108.788 23.2005 107.924 23.2197 107.053 23.0661C106.951 23.0533 106.849 23.0597 106.746 23.0853C105.888 23.2901 105.037 23.2837 104.192 23.0661C103.834 22.9765 103.571 23.0917 103.405 23.4117ZM100.39 48.0498C100.39 48.0754 100.39 48.0946 100.39 48.1074C100.377 48.1458 100.371 48.1842 100.371 48.2226C100.371 48.2226 100.371 48.229 100.371 48.2418C100.371 48.2418 100.377 48.2418 100.39 48.2418C100.39 48.2162 100.39 48.1906 100.39 48.165C100.39 48.1266 100.383 48.0882 100.371 48.0498C100.383 48.037 100.396 48.0242 100.409 48.0114C100.447 47.973 100.486 47.9409 100.524 47.9153C100.55 47.9025 100.582 47.8897 100.62 47.8769C100.646 47.8769 100.665 47.8769 100.678 47.8769C100.691 47.8897 100.697 47.9025 100.697 47.9153C100.71 47.9409 100.716 47.9666 100.716 47.9922C100.716 48.005 100.716 48.0242 100.716 48.0498C100.704 48.0626 100.684 48.0818 100.659 48.1074C100.633 48.1202 100.607 48.1266 100.582 48.1266C100.531 48.1266 100.486 48.1138 100.447 48.0882C100.422 48.0754 100.403 48.0626 100.39 48.0498ZM102.31 48.1458C102.297 48.1074 102.285 48.069 102.272 48.0306C102.221 47.9538 102.189 47.8705 102.176 47.7809C102.163 47.6913 102.208 47.6017 102.31 47.5121C102.31 47.7297 102.31 47.9409 102.31 48.1458C102.285 48.1714 102.259 48.1906 102.233 48.2034C102.182 48.2418 102.144 48.2866 102.118 48.3378C101.939 48.9139 101.76 49.49 101.58 50.0661C101.529 50.2582 101.478 50.4438 101.427 50.623C101.107 50.6614 100.972 50.5974 101.024 50.431C101.062 50.303 101.107 50.1814 101.158 50.0661C101.324 49.5668 101.523 49.0804 101.753 48.6067C101.83 48.4786 101.952 48.3698 102.118 48.2802C102.182 48.2418 102.246 48.197 102.31 48.1458ZM103.77 49.9893C103.77 50.0021 103.77 50.0149 103.77 50.0277C103.757 50.0405 103.75 50.0533 103.75 50.0661C103.75 50.0533 103.744 50.0469 103.731 50.0469C103.718 50.0213 103.706 49.9957 103.693 49.9701C103.693 49.9701 103.693 49.9637 103.693 49.9509C103.706 49.9381 103.712 49.9317 103.712 49.9317C103.725 49.9189 103.738 49.9125 103.75 49.9125C103.763 49.9381 103.77 49.9637 103.77 49.9893ZM127.178 40.7717L127.159 40.7525C127.3 40.6756 127.408 40.5796 127.485 40.4644C127.575 40.3492 127.658 40.2212 127.735 40.0803C127.786 39.9907 127.837 39.8947 127.888 39.7923C127.952 39.6899 128.016 39.5874 128.08 39.485C128.221 39.1906 128.42 38.9345 128.676 38.7169C128.701 38.5121 128.727 38.3008 128.753 38.0832C128.778 38.0832 128.797 38.0768 128.81 38.064C128.823 38.0384 128.836 38.0128 128.849 37.9872C128.874 37.9487 128.9 37.9231 128.925 37.9103C128.964 37.8975 129.009 37.9103 129.06 37.9488C129.073 37.9744 129.079 38.0064 129.079 38.0448C129.092 38.0832 129.092 38.1152 129.079 38.1408C129.028 38.2048 128.983 38.2304 128.945 38.2176C128.906 38.2048 128.868 38.1792 128.829 38.1408C128.804 38.1152 128.785 38.096 128.772 38.0832C128.759 38.096 128.753 38.1088 128.753 38.1216C128.727 38.3136 128.695 38.5057 128.657 38.6977C128.657 38.7361 128.65 38.7745 128.637 38.8129C128.625 38.9793 128.593 39.1394 128.541 39.293C128.49 39.4466 128.401 39.5938 128.273 39.7347C128.144 39.8883 128.055 40.0675 128.004 40.2724C127.863 40.6564 127.652 40.9893 127.37 41.2709C127.293 41.3606 127.223 41.4502 127.159 41.5398C127.095 41.6294 127.018 41.6806 126.928 41.6934C126.851 41.7062 126.768 41.7062 126.679 41.6934C126.627 41.6934 126.576 41.6934 126.525 41.6934C126.576 41.7446 126.634 41.7958 126.698 41.8471C126.775 41.9111 126.851 41.9879 126.928 42.0775C126.89 42.1671 126.851 42.2567 126.813 42.3463C126.711 42.6536 126.519 42.9545 126.237 43.2489C126.25 42.8776 126.32 42.5704 126.448 42.3271C126.461 42.3143 126.467 42.2951 126.467 42.2695C126.519 42.1543 126.538 42.0199 126.525 41.8663C126.525 41.8022 126.525 41.7446 126.525 41.6934C126.615 41.6806 126.672 41.6486 126.698 41.5974C126.723 41.5334 126.736 41.463 126.736 41.3862L126.755 41.4246C126.73 41.4502 126.691 41.4758 126.64 41.5014C126.551 41.5398 126.487 41.5974 126.448 41.6742C125.834 42.8776 125.123 44.017 124.317 45.0924C124.163 45.3101 124.009 45.5277 123.856 45.7454C122.883 47.2048 121.775 48.5491 120.534 49.7781C120.188 50.1237 119.817 50.4438 119.42 50.7383C119.036 51.0327 118.6 51.2503 118.114 51.3912C117.743 51.4936 117.384 51.6344 117.039 51.8136C116.629 52.0313 116.226 52.1273 115.829 52.1017C115.432 52.0633 115.029 51.9673 114.619 51.8136C114.529 51.7752 114.433 51.7368 114.331 51.6984C114.203 51.6472 114.068 51.596 113.928 51.5448C113.825 51.5192 113.716 51.5064 113.601 51.5064C113.55 51.5064 113.499 51.5064 113.447 51.5064C113.409 51.6088 113.383 51.6984 113.371 51.7752C113.345 51.8649 113.319 51.9481 113.294 52.0249C113.23 52.0249 113.166 52.0185 113.102 52.0057C113.025 52.0057 112.955 51.9993 112.891 51.9865C112.865 52.0761 112.839 52.1721 112.814 52.2745C112.775 52.4026 112.731 52.537 112.679 52.6778C112.449 52.4986 112.238 52.3065 112.046 52.1017C111.777 51.7816 111.45 51.5192 111.066 51.3144C111.041 51.3784 111.015 51.436 110.989 51.4872C110.938 51.6024 110.913 51.7112 110.913 51.8136C110.964 52.0953 111.06 52.3513 111.201 52.5818C111.469 52.9915 111.674 53.4267 111.815 53.8876C111.994 54.4253 112.321 54.8094 112.795 55.0398C113.486 55.3343 114.184 55.5839 114.888 55.7888C115.605 55.9936 116.354 56.0512 117.135 55.9616C117.365 55.9232 117.602 55.8976 117.845 55.8848C118.447 55.8464 119.029 55.7376 119.593 55.5583C119.695 55.5199 119.797 55.4879 119.9 55.4623C120.438 55.2703 120.969 55.059 121.494 54.8286C122.019 54.5853 122.511 54.2781 122.972 53.9068C123.164 53.7404 123.363 53.5932 123.568 53.4651C123.888 53.2603 124.182 53.0235 124.451 52.7546C124.848 52.3193 125.309 51.9673 125.834 51.6984C126.026 51.596 126.167 51.4744 126.256 51.3336C126.359 51.1927 126.448 51.0391 126.525 50.8727C126.615 50.6678 126.736 50.4822 126.89 50.3158C126.915 50.2902 126.935 50.2582 126.947 50.2198C126.973 50.1942 126.999 50.1686 127.024 50.1429C127.754 49.3876 128.381 48.5491 128.906 47.6273C129.085 47.3328 129.271 47.0448 129.463 46.7631C129.527 46.6607 129.591 46.5647 129.655 46.4751C130.039 45.9886 130.308 45.4445 130.462 44.8428C130.487 44.766 130.532 44.6956 130.596 44.6316C130.635 44.5931 130.667 44.5483 130.692 44.4971C130.846 44.2283 130.999 43.9594 131.153 43.6906C131.524 43.0633 131.87 42.4168 132.19 41.751C133.099 39.6899 133.758 37.5519 134.168 35.3371C134.437 34.0184 134.482 32.6934 134.302 31.362C134.046 29.6721 133.489 28.1806 132.632 26.8876C131.774 25.5945 130.583 24.5319 129.06 23.6998C127.626 22.9829 126.115 22.5796 124.528 22.49C123.683 22.3747 122.851 22.426 122.031 22.6436C121.775 22.7204 121.513 22.7716 121.244 22.7972C121.052 22.8228 120.866 22.8548 120.687 22.8932C120.457 22.9573 120.226 23.0405 119.996 23.1429C119.394 23.4373 118.812 23.7766 118.248 24.1607C117.979 24.3527 117.704 24.5319 117.423 24.6984C116.629 25.2233 115.918 25.8122 115.291 26.4651C115.214 26.5419 115.131 26.6187 115.041 26.6955C114.837 26.9132 114.657 27.1564 114.504 27.4253C114.452 27.5277 114.395 27.6237 114.331 27.7133C114.318 27.7389 114.312 27.7645 114.312 27.7901C114.324 27.8029 114.331 27.8221 114.331 27.8477C114.344 27.8733 114.35 27.8989 114.35 27.9245C114.542 27.963 114.734 27.995 114.926 28.0206C114.901 28.123 114.881 28.219 114.869 28.3086C114.843 28.3726 114.824 28.4366 114.811 28.5006C114.862 28.5391 114.913 28.5647 114.965 28.5775C115.029 28.5775 115.093 28.5711 115.157 28.5583C115.233 28.5455 115.304 28.5455 115.368 28.5583C115.445 28.5711 115.509 28.6159 115.56 28.6927C115.47 28.7951 115.387 28.8911 115.31 28.9807C115.118 29.1856 114.933 29.3776 114.753 29.5568C114.753 29.5696 114.747 29.576 114.734 29.576C114.593 29.7041 114.465 29.8449 114.35 29.9985C114.248 30.1521 114.177 30.3442 114.139 30.5746C114.203 30.5874 114.267 30.6002 114.331 30.613C114.446 30.6514 114.548 30.6514 114.638 30.613C115.048 30.4082 115.438 30.1778 115.809 29.9217C116.002 29.7681 116.219 29.6721 116.462 29.6337C117.243 29.5824 117.903 29.2624 118.44 28.6735C118.556 28.5455 118.69 28.4366 118.844 28.347C119.663 27.8221 120.514 27.4189 121.398 27.1372C122.281 26.8556 123.228 26.7659 124.24 26.8684C125.405 27.0604 126.455 27.4957 127.389 28.1742C127.479 28.2382 127.556 28.315 127.62 28.4046C127.671 28.4686 127.722 28.5327 127.773 28.5967C128.183 29.0832 128.516 29.6273 128.772 30.229C128.874 30.5618 128.932 30.9011 128.945 31.2467C128.945 31.6692 129.034 32.0725 129.213 32.4566C129.278 32.5846 129.297 32.7318 129.271 32.8982C129.271 32.9238 129.271 32.9495 129.271 32.9751C129.271 33.0775 129.258 33.1863 129.233 33.3015C129.22 33.3271 129.213 33.3527 129.213 33.3783C129.149 33.6728 129.079 33.9672 129.002 34.2617C128.836 34.9146 128.695 35.5675 128.58 36.2204C128.503 36.6173 128.394 37.0014 128.253 37.3726C128.112 37.7439 128.01 38.1344 127.946 38.5441C127.933 38.5825 127.914 38.6273 127.888 38.6785C127.863 38.7169 127.831 38.7553 127.792 38.7937C127.792 38.7937 127.792 38.8001 127.792 38.8129C127.383 39.4018 127.178 40.0547 127.178 40.7717ZM131.921 40.1956C131.921 40.2468 131.921 40.3044 131.921 40.3684C131.921 40.3428 131.921 40.3108 131.921 40.2724C131.921 40.2468 131.915 40.2212 131.902 40.1956C131.979 40.17 132.049 40.1443 132.113 40.1187C132.126 40.1187 132.132 40.1187 132.132 40.1187C132.132 40.1187 132.126 40.1251 132.113 40.1379C132.113 40.1507 132.113 40.1635 132.113 40.1764C132.113 40.1892 132.113 40.1956 132.113 40.1956C132.062 40.1956 132.017 40.1956 131.979 40.1956C131.953 40.1956 131.934 40.1956 131.921 40.1956ZM129.329 45.2461C129.521 45.5277 129.47 45.7518 129.175 45.9182C129.175 45.9054 129.181 45.867 129.194 45.803C129.207 45.739 129.226 45.6685 129.252 45.5917C129.278 45.5021 129.297 45.4253 129.31 45.3613C129.335 45.2845 129.348 45.2461 129.348 45.2461C129.694 44.8364 130.046 44.4203 130.404 43.9978C130.443 43.9594 130.475 43.921 130.5 43.8826C130.5 43.8314 130.5 43.7802 130.5 43.729C130.487 43.601 130.5 43.4793 130.539 43.3641C130.871 42.6472 131.217 41.9303 131.576 41.2133C131.601 41.1621 131.646 41.1173 131.71 41.0789C131.736 41.0533 131.755 41.0341 131.768 41.0213C131.87 41.0981 131.915 41.1749 131.902 41.2517C131.902 41.3158 131.883 41.3798 131.844 41.4438C131.832 41.4566 131.825 41.4758 131.825 41.5014C131.787 41.5654 131.755 41.6358 131.729 41.7126C131.46 42.3399 131.179 42.9609 130.884 43.5754C130.859 43.6138 130.82 43.6522 130.769 43.6906C130.718 43.7162 130.667 43.7418 130.615 43.7674C130.564 43.793 130.513 43.8186 130.462 43.8442C130.487 44.1515 130.423 44.4139 130.27 44.6316C130.116 44.8492 129.93 45.0476 129.713 45.2269C129.687 45.2397 129.649 45.2525 129.598 45.2653C129.559 45.2653 129.514 45.2653 129.463 45.2653C129.412 45.2525 129.367 45.2461 129.329 45.2461ZM128.561 42.7496C128.573 42.7752 128.58 42.7944 128.58 42.8072C128.58 42.82 128.58 42.8328 128.58 42.8456C128.58 42.8456 128.58 42.8392 128.58 42.8264C128.58 42.8392 128.58 42.8456 128.58 42.8456C128.58 42.82 128.573 42.7944 128.561 42.7688C128.471 42.6792 128.426 42.5896 128.426 42.5C128.426 42.4104 128.452 42.3143 128.503 42.2119C128.593 42.0071 128.689 41.8022 128.791 41.5974C128.957 41.2261 129.13 40.8677 129.31 40.522C129.54 40.0867 129.726 39.6387 129.866 39.1778C129.905 39.0369 129.962 38.9089 130.039 38.7937C130.078 38.7425 130.11 38.6913 130.135 38.6401C130.225 38.6529 130.282 38.6785 130.308 38.7169C130.334 38.7553 130.34 38.8001 130.327 38.8513C130.327 38.8897 130.321 38.9281 130.308 38.9665C130.193 39.3122 130.078 39.6707 129.962 40.0419C129.719 40.9125 129.386 41.751 128.964 42.5576C128.925 42.6344 128.874 42.6984 128.81 42.7496C128.759 42.8008 128.676 42.8008 128.561 42.7496ZM127.274 45.8222C127.364 45.6173 127.453 45.4061 127.543 45.1885C127.773 44.6764 127.997 44.1707 128.215 43.6714C128.317 43.4537 128.452 43.4473 128.618 43.6522C128.541 43.8314 128.465 44.017 128.388 44.2091C128.273 44.5291 128.132 44.83 127.965 45.1116C127.812 45.3933 127.581 45.6301 127.274 45.8222ZM130.558 37.6799C130.558 37.6415 130.558 37.6095 130.558 37.5839C130.571 37.4815 130.583 37.3854 130.596 37.2958C130.596 37.283 130.603 37.2766 130.615 37.2766C130.641 37.2638 130.66 37.2574 130.673 37.2574C130.699 37.2574 130.718 37.251 130.731 37.2382C130.743 37.251 130.75 37.2638 130.75 37.2766C130.75 37.2766 130.75 37.283 130.75 37.2958C130.763 37.3086 130.769 37.3214 130.769 37.3342C130.743 37.4239 130.718 37.5199 130.692 37.6223C130.692 37.6479 130.686 37.6735 130.673 37.6991C130.635 37.6863 130.596 37.6799 130.558 37.6799ZM132.382 39.581C132.369 39.5938 132.356 39.6066 132.344 39.6195C132.331 39.6195 132.324 39.6259 132.324 39.6387C132.312 39.6259 132.305 39.6195 132.305 39.6195C132.292 39.6066 132.286 39.5938 132.286 39.581C132.286 39.5682 132.286 39.5618 132.286 39.5618C132.286 39.549 132.286 39.5426 132.286 39.5426C132.299 39.5298 132.312 39.517 132.324 39.5042C132.337 39.5042 132.344 39.4978 132.344 39.485C132.356 39.5106 132.363 39.5298 132.363 39.5426C132.376 39.5554 132.382 39.5682 132.382 39.581ZM128.522 46.4751C128.535 46.4879 128.541 46.5071 128.541 46.5327C128.567 46.5711 128.58 46.6095 128.58 46.6479C128.58 46.6479 128.573 46.6543 128.561 46.6671C128.561 46.6799 128.554 46.6927 128.541 46.7055C128.529 46.7055 128.516 46.7055 128.503 46.7055C128.49 46.7055 128.477 46.6991 128.465 46.6863C128.465 46.6735 128.458 46.6671 128.445 46.6671C128.445 46.6543 128.445 46.6415 128.445 46.6287C128.458 46.5903 128.477 46.5583 128.503 46.5327C128.516 46.5071 128.522 46.4879 128.522 46.4751ZM121.667 33.3591C121.667 33.4487 121.66 33.5448 121.647 33.6472C121.635 33.7496 121.628 33.852 121.628 33.9544C121.603 33.9544 121.583 33.9608 121.571 33.9736C121.532 33.9864 121.494 33.9928 121.455 33.9928C121.417 33.98 121.385 33.9672 121.359 33.9544C121.346 33.9416 121.334 33.9352 121.321 33.9352C121.321 33.9352 121.321 33.9288 121.321 33.916C121.334 33.9032 121.34 33.8968 121.34 33.8968C121.353 33.884 121.359 33.8776 121.359 33.8776C121.372 33.8776 121.385 33.8776 121.398 33.8776C121.423 33.8776 121.442 33.8776 121.455 33.8776C121.494 33.8904 121.532 33.9096 121.571 33.9352C121.583 33.948 121.603 33.9544 121.628 33.9544C121.628 33.916 121.635 33.8712 121.647 33.82C121.66 33.6664 121.673 33.5192 121.686 33.3783C121.75 33.2759 121.807 33.1735 121.859 33.0711C122.025 32.7766 122.191 32.4886 122.358 32.2069C122.422 32.1173 122.486 32.0277 122.55 31.9381C122.665 31.81 122.755 31.6756 122.819 31.5348C122.883 31.3684 122.921 31.1891 122.934 30.9971C122.934 30.9459 122.94 30.8883 122.953 30.8243C122.979 30.7218 123.024 30.6258 123.088 30.5362C123.126 30.4722 123.158 30.4018 123.184 30.325C123.222 30.2482 123.228 30.1649 123.203 30.0753C123.126 30.1009 123.043 30.1265 122.953 30.1521C122.864 30.1778 122.787 30.197 122.723 30.2098C122.659 30.2226 122.614 30.2162 122.588 30.1906C122.422 30.0369 122.287 29.9921 122.185 30.0561C122.083 30.1201 121.999 30.2162 121.935 30.3442C121.41 31.2147 120.918 32.0981 120.457 32.9943C120.277 33.3399 120.015 33.5704 119.669 33.6856C119.708 33.788 119.74 33.8968 119.765 34.012C119.778 34.0633 119.791 34.1081 119.804 34.1465C119.791 34.1465 119.778 34.1465 119.765 34.1465C119.74 34.1593 119.714 34.1657 119.689 34.1657C119.689 34.0889 119.689 34.0184 119.689 33.9544C119.676 33.8648 119.669 33.7752 119.669 33.6856C119.682 33.6728 119.701 33.66 119.727 33.6472C119.753 33.6472 119.772 33.6408 119.785 33.628C119.81 33.6152 119.829 33.6024 119.842 33.5896C120.188 32.6806 120.534 31.7652 120.879 30.8435C120.918 30.7154 120.911 30.6066 120.86 30.517C120.822 30.4146 120.764 30.3186 120.687 30.229C120.649 30.229 120.617 30.2354 120.591 30.2482C120.514 30.261 120.438 30.2738 120.361 30.2866C120.361 30.2866 120.354 30.2866 120.341 30.2866C120.341 30.2738 120.341 30.261 120.341 30.2482C120.329 30.2354 120.322 30.229 120.322 30.229C120.348 30.1393 120.374 30.0497 120.399 29.9601C120.527 29.6016 120.674 29.1728 120.841 28.6735C120.738 28.7375 120.655 28.7887 120.591 28.8271C120.489 28.8783 120.418 28.9295 120.38 28.9807C120.277 29.1088 120.175 29.2304 120.073 29.3456C119.445 29.9857 118.952 30.7218 118.594 31.554C118.581 31.5924 118.556 31.6308 118.517 31.6692C118.492 31.6948 118.453 31.7076 118.402 31.7076C118.364 31.7076 118.312 31.6756 118.248 31.6116C118.312 31.3812 118.402 31.1571 118.517 30.9395C118.735 30.581 118.844 30.1778 118.844 29.7297C118.46 30.2802 118.114 30.8435 117.807 31.4196C116.526 33.852 115.649 36.4253 115.176 39.1394C114.907 40.5092 114.664 41.8855 114.446 43.2681C114.446 43.2937 114.44 43.3193 114.427 43.3449C114.312 43.9082 114.273 44.4715 114.312 45.0348C114.401 45.7646 114.523 46.5007 114.676 47.2432C114.728 47.4993 114.772 47.7553 114.811 48.0114C114.862 48.2546 114.926 48.4914 115.003 48.7219C115.016 48.7475 115.029 48.7731 115.041 48.7987C115.08 48.9523 115.144 49.0996 115.233 49.2404C115.336 49.3812 115.489 49.5092 115.694 49.6245C115.72 49.586 115.745 49.5412 115.771 49.49C115.822 49.4004 115.873 49.3044 115.925 49.202C115.95 49.2148 115.97 49.234 115.982 49.2596C116.11 49.3748 116.226 49.4772 116.328 49.5668C116.52 49.49 116.699 49.4196 116.866 49.3556C116.917 49.4708 116.962 49.5732 117 49.6629C117.077 49.8933 117.167 50.1045 117.269 50.2966C117.307 50.3478 117.365 50.3926 117.442 50.431C117.531 50.4694 117.615 50.4886 117.691 50.4886C117.743 50.4886 117.794 50.463 117.845 50.4118C117.909 50.3478 117.947 50.2838 117.96 50.2198C118.037 49.8741 118.165 49.554 118.344 49.2596C118.396 49.17 118.44 49.0868 118.479 49.0099C118.543 48.9075 118.588 48.7987 118.613 48.6835C118.639 48.5683 118.632 48.4466 118.594 48.3186C118.402 47.7297 118.325 47.1408 118.364 46.5519C118.402 45.963 118.479 45.3805 118.594 44.8044C118.607 44.7404 118.62 44.67 118.632 44.5931C118.773 43.8122 118.978 43.0377 119.247 42.2695C119.362 41.9367 119.465 41.6102 119.554 41.2902C119.593 41.1749 119.625 41.0597 119.65 40.9445C119.74 40.6244 119.842 40.3044 119.957 39.9843C120.06 39.7539 120.169 39.5234 120.284 39.293C120.642 38.6785 120.854 38.0064 120.918 37.2766C120.943 37.0718 121.026 36.867 121.167 36.6621C121.193 36.6109 121.218 36.5597 121.244 36.5085C121.5 35.9836 121.711 35.4331 121.878 34.857C122.006 34.4217 122.204 34.0184 122.473 33.6472C122.64 33.4423 122.748 33.2183 122.8 32.9751C122.851 32.7318 122.883 32.4438 122.896 32.1109C122.793 32.2389 122.704 32.3605 122.627 32.4758C122.409 32.7702 122.211 33.0263 122.031 33.2439C122.006 33.2695 121.967 33.2887 121.916 33.3015C121.878 33.3143 121.833 33.3207 121.782 33.3207C121.743 33.3335 121.705 33.3463 121.667 33.3591ZM117.864 32.6678C117.864 32.719 117.864 32.7702 117.864 32.8214C117.864 32.8086 117.864 32.7894 117.864 32.7638C117.851 32.7382 117.845 32.7126 117.845 32.687C117.935 32.5846 118.031 32.4758 118.133 32.3605C118.133 32.3605 118.139 32.3541 118.152 32.3413C118.165 32.3029 118.184 32.2645 118.21 32.2261C118.21 32.2133 118.216 32.2005 118.229 32.1877C118.229 32.2005 118.229 32.2069 118.229 32.2069C118.229 32.2197 118.223 32.2325 118.21 32.2453C118.21 32.2453 118.21 32.2517 118.21 32.2645C118.197 32.2773 118.178 32.2901 118.152 32.3029C118.139 32.3029 118.133 32.3029 118.133 32.3029C118.082 32.3797 118.024 32.4566 117.96 32.5334C117.935 32.5846 117.903 32.6294 117.864 32.6678ZM142.544 28.2894C142.531 28.3534 142.525 28.4046 142.525 28.443C142.525 28.5327 142.512 28.6031 142.486 28.6543C142.358 28.8719 142.237 29.0832 142.121 29.288C141.891 29.6721 141.68 30.0625 141.488 30.4594C141.129 31.2275 140.796 32.0085 140.489 32.8022C140.476 32.8278 140.47 32.8534 140.47 32.879C140.419 33.0071 140.367 33.1351 140.316 33.2631C140.175 33.7368 139.958 34.1721 139.663 34.5689C139.599 34.6458 139.548 34.7482 139.51 34.8762C139.497 34.9274 139.478 34.985 139.452 35.049C139.362 35.2795 139.273 35.5099 139.183 35.7404C138.927 36.3549 138.671 36.963 138.415 37.5647C138.095 38.2176 137.839 38.9025 137.647 39.6195C137.519 40.1315 137.365 40.6308 137.186 41.1173C136.956 41.6678 136.821 42.2439 136.783 42.8456C136.77 42.9865 136.738 43.1209 136.687 43.2489C136.661 43.3129 136.635 43.3769 136.61 43.4409C136.597 43.5178 136.578 43.5946 136.552 43.6714C136.488 43.825 136.443 43.9786 136.418 44.1323C136.354 44.4779 136.309 44.8236 136.283 45.1693C136.245 45.7197 136.149 46.2638 135.995 46.8015C135.944 47.0448 135.944 47.3072 135.995 47.5889C136.008 47.6401 136.015 47.6913 136.015 47.7425C136.04 47.9217 136.079 48.0946 136.13 48.261C136.168 48.4274 136.2 48.5939 136.226 48.7603C136.264 49.0676 136.322 49.3684 136.399 49.6629C136.45 49.9061 136.495 50.1493 136.533 50.3926C136.648 50.9047 136.834 51.3976 137.09 51.8713C137.141 51.9993 137.199 52.1209 137.263 52.2361C137.442 52.6074 137.634 52.9723 137.839 53.3307C137.877 53.3947 137.916 53.4523 137.954 53.5036C138.159 53.8108 138.415 54.0669 138.722 54.2717C138.837 54.3613 138.953 54.4573 139.068 54.5597C139.759 55.0846 140.521 55.4495 141.353 55.6543C141.43 55.6927 141.513 55.7248 141.603 55.7504C142.576 56.0064 143.562 56.0768 144.56 55.9616C144.611 55.9488 144.663 55.9424 144.714 55.9424C145.213 55.904 145.7 55.8016 146.173 55.6351C146.199 55.6223 146.224 55.6159 146.25 55.6159C146.929 55.4111 147.543 55.0846 148.094 54.6366C148.26 54.5085 148.426 54.3869 148.593 54.2717C149.156 53.9004 149.63 53.4395 150.014 52.889C150.232 52.5306 150.5 52.2041 150.82 51.9097C151.384 51.3464 151.736 50.719 151.877 50.0277C152.03 49.3236 152.107 48.6003 152.107 47.8577C152.107 47.7681 152.088 47.6785 152.049 47.5889C152.024 47.4865 151.985 47.4225 151.934 47.3969C151.806 47.3584 151.697 47.3072 151.608 47.2432C151.531 47.1664 151.461 47.0832 151.397 46.9936C151.32 46.904 151.237 46.8271 151.147 46.7631C151.07 46.6863 150.974 46.6415 150.859 46.6287C150.859 46.5263 150.859 46.4303 150.859 46.3407C150.859 46.1614 150.852 45.9886 150.84 45.8222C150.827 45.6685 150.756 45.5597 150.628 45.4957C150.513 45.4317 150.379 45.4381 150.225 45.5149C150.008 45.6301 149.79 45.7518 149.572 45.8798C149.457 45.9438 149.348 46.0078 149.246 46.0718C149.246 46.123 149.239 46.1678 149.227 46.2062C149.227 46.3087 149.214 46.4047 149.188 46.4943C149.035 47.2752 148.644 47.9153 148.017 48.4146C147.927 48.4786 147.838 48.5491 147.748 48.6259C147.133 49.074 146.506 49.49 145.866 49.8741C145.149 50.335 144.368 50.623 143.523 50.7383C142.717 50.7895 142.153 50.463 141.833 49.7589C141.68 49.4388 141.564 49.1124 141.488 48.7795C141.372 48.229 141.296 47.6721 141.257 47.1088C141.232 46.1358 141.296 45.1757 141.449 44.2283C141.603 43.2809 141.795 42.3399 142.025 41.4054C142.038 41.3414 142.07 41.2773 142.121 41.2133C142.147 41.1749 142.166 41.1365 142.179 41.0981C142.243 41.1109 142.307 41.1237 142.371 41.1365C142.512 41.1749 142.646 41.2069 142.774 41.2325C143.786 41.527 144.791 41.5206 145.789 41.2133C146.596 40.9445 147.396 40.6564 148.19 40.3492C148.241 40.3236 148.292 40.3044 148.343 40.2916C148.548 40.2148 148.721 40.0995 148.862 39.9459C149.323 39.3826 149.758 38.8001 150.168 38.1984C150.219 38.1216 150.251 38.0384 150.264 37.9488C150.289 37.8591 150.296 37.7759 150.283 37.6991C150.232 37.3918 150.161 37.091 150.072 36.7965C150.046 36.6685 150.014 36.5341 149.975 36.3933C150.014 36.3421 150.059 36.278 150.11 36.2012C150.212 36.0476 150.315 35.8876 150.417 35.7211C150.456 35.6187 150.456 35.5163 150.417 35.4139C150.379 35.3115 150.308 35.2411 150.206 35.2027C149.975 35.1386 149.745 35.081 149.515 35.0298C149.425 35.0042 149.329 34.9786 149.227 34.953C148.561 35.7468 147.729 36.15 146.73 36.1628C146.564 36.1756 146.391 36.1884 146.212 36.2012C145.725 36.2652 145.239 36.2396 144.752 36.1244C144.675 36.1116 144.592 36.118 144.503 36.1436C144.451 36.1692 144.4 36.182 144.349 36.182C144.246 36.182 144.131 36.182 144.003 36.182C143.952 36.1692 143.888 36.1628 143.811 36.1628C143.901 35.9196 143.99 35.6827 144.08 35.4523C144.285 34.889 144.483 34.3449 144.675 33.82C144.727 33.6792 144.784 33.5384 144.848 33.3975C144.899 33.2567 144.957 33.1095 145.021 32.9559C145.136 32.6358 145.239 32.3157 145.328 31.9957C145.546 31.1763 145.885 30.4018 146.346 29.6721C146.397 29.5952 146.448 29.5248 146.5 29.4608C146.653 29.2816 146.769 29.096 146.845 28.9039C147.012 28.5327 147.281 28.2638 147.652 28.0974C147.767 28.1358 147.882 28.1742 147.998 28.2126C148.241 28.3022 148.484 28.3918 148.727 28.4814C149.675 28.8015 150.641 28.9103 151.627 28.8079C152.92 28.6415 154.175 28.3406 155.391 27.9053C155.929 27.7133 156.389 27.4189 156.774 27.022C157.17 26.6123 157.522 26.1706 157.83 25.6969C157.855 25.6585 157.875 25.6073 157.887 25.5433C157.9 25.4793 157.9 25.4345 157.887 25.4089C157.823 25.3193 157.785 25.2233 157.772 25.1208C157.759 25.0184 157.759 24.916 157.772 24.8136C157.772 24.6984 157.766 24.5895 157.753 24.4871C157.74 24.3719 157.682 24.2695 157.58 24.1799C157.644 24.1031 157.708 24.039 157.772 23.9878C157.9 23.8598 158.009 23.7318 158.099 23.6038C158.15 23.4885 158.182 23.3605 158.195 23.2197C158.207 23.1557 158.22 23.0917 158.233 23.0277C157.887 22.9252 157.567 22.8228 157.273 22.7204C157.145 22.682 157.017 22.6436 156.889 22.6052C156.377 23.1685 155.769 23.5013 155.064 23.6038C154.168 23.6934 153.272 23.7254 152.376 23.6998C152.197 23.687 152.017 23.6678 151.838 23.6422C151.518 23.5782 151.192 23.5782 150.859 23.6422C150.795 23.655 150.724 23.655 150.648 23.6422C150.584 23.6166 150.52 23.591 150.456 23.5654C150.417 23.5526 150.379 23.5462 150.34 23.5462C150.328 23.5334 150.315 23.5206 150.302 23.5077C150.302 23.4821 150.302 23.4565 150.302 23.4309C150.289 23.4053 150.283 23.3861 150.283 23.3733C150.296 23.3349 150.315 23.3157 150.34 23.3157C150.366 23.3029 150.398 23.2965 150.436 23.2965C150.475 23.2965 150.507 23.2901 150.532 23.2773C150.571 23.2645 150.596 23.2453 150.609 23.2197C150.635 23.1813 150.641 23.1301 150.628 23.0661C150.552 23.0405 150.475 23.0213 150.398 23.0085C150.219 22.9701 150.04 22.9252 149.86 22.874C148.836 22.5924 147.799 22.5156 146.749 22.6436C145.251 22.8612 143.805 23.2453 142.409 23.7958C142.269 23.847 142.134 23.8918 142.006 23.9302C141.443 24.1479 140.956 24.4679 140.547 24.8904C140.15 25.3129 139.778 25.761 139.433 26.2346C139.42 26.2474 139.407 26.2602 139.394 26.273C139.356 26.3243 139.324 26.3947 139.298 26.4843C139.286 26.5611 139.292 26.6187 139.318 26.6571C139.42 26.8235 139.465 27.0028 139.452 27.1948C139.452 27.3228 139.471 27.4445 139.51 27.5597C139.548 27.6749 139.631 27.7709 139.759 27.8477C139.682 27.9245 139.606 28.0014 139.529 28.0782C139.375 28.2446 139.234 28.411 139.106 28.5775C139.055 28.6543 139.03 28.7375 139.03 28.8271C139.042 28.9167 139.074 28.9935 139.126 29.0576C139.177 29.1216 139.241 29.1536 139.318 29.1536C139.548 29.128 139.772 29.16 139.99 29.2496C140.169 29.3136 140.361 29.352 140.566 29.3648C141.078 28.8271 141.737 28.4686 142.544 28.2894ZM142.525 40.426C142.55 40.4388 142.576 40.4516 142.601 40.4644C142.64 40.49 142.685 40.5156 142.736 40.5412C142.71 40.554 142.685 40.5732 142.659 40.5988C142.633 40.6244 142.608 40.6436 142.582 40.6564C142.569 40.6692 142.55 40.6756 142.525 40.6756C142.499 40.6756 142.473 40.6628 142.448 40.6372C142.435 40.6116 142.416 40.586 142.39 40.5604C142.377 40.5348 142.365 40.5156 142.352 40.5028C142.365 40.49 142.384 40.4772 142.409 40.4644C142.448 40.4516 142.486 40.4388 142.525 40.426ZM142.467 55.0782C142.441 55.0782 142.422 55.0782 142.409 55.0782C142.333 55.0782 142.256 55.0718 142.179 55.059C142.179 55.059 142.179 55.0526 142.179 55.0398C142.179 55.027 142.179 55.0142 142.179 55.0014C142.179 54.9886 142.179 54.9694 142.179 54.9438C142.192 54.9566 142.211 54.963 142.237 54.963C142.313 54.9758 142.384 54.9886 142.448 55.0014C142.448 55.0014 142.448 55.0078 142.448 55.0206C142.448 55.0206 142.454 55.027 142.467 55.0398C142.467 55.0526 142.467 55.0654 142.467 55.0782ZM142.985 51.4296C142.973 51.4424 142.96 51.4552 142.947 51.468C142.934 51.4424 142.921 51.4232 142.909 51.4104C142.909 51.4104 142.915 51.4104 142.928 51.4104C142.941 51.4104 142.96 51.4168 142.985 51.4296ZM149.726 23.2773L149.707 23.3541L149.649 23.3157L149.726 23.2773ZM149.284 27.8861V27.9437L149.207 27.9053L149.284 27.8861Z" fill="#5837D0"/>
</svg>
